<svg width="48" height="48" viewBox="0 0 48 48" fill="none" xmlns="http://www.w3.org/2000/svg">
<circle cx="24" cy="24" r="24" fill="#DF5E63" fill-opacity="0.2"/>
<path d="M35.191 32.6749C34.995 34.1329 34.0139 35.3936 32.6408 35.9541C31.968 36.2337 31.239 36.3186 30.51 36.2337C29.8097 36.1501 29.1081 35.9253 28.3804 35.506C27.3719 34.9442 26.362 34.0767 25.1849 32.7872C27.0348 30.5166 28.1557 28.4433 28.5764 26.5933C28.7724 25.7245 28.8011 24.9393 28.7162 24.2103C28.6039 23.5101 28.3517 22.8647 27.9598 22.3042C27.091 21.0435 25.633 20.3145 24.0077 20.3145C22.3825 20.3145 20.9245 21.0709 20.0557 22.3042C19.6638 22.8647 19.4116 23.5101 19.2993 24.2103C19.1869 24.9393 19.2156 25.752 19.4391 26.5933C19.8597 28.4433 21.0081 30.5454 22.8306 32.8147C21.6809 34.1041 20.6449 34.9729 19.635 35.5334C18.906 35.9541 18.2058 36.1788 17.5055 36.2624C16.783 36.3434 16.0527 36.2467 15.376 35.9828C14.0029 35.4224 13.0217 34.1603 12.8258 32.7036C12.7421 32.0034 12.7983 31.3031 13.0779 30.5179C13.1615 30.237 13.3026 29.9574 13.4424 29.6217C13.6384 29.1736 13.8631 28.6967 14.0865 28.2199L14.1152 28.1637C16.0488 23.9869 18.1234 19.7266 20.2817 15.5786L20.3653 15.41C20.59 14.9907 20.8134 14.5412 21.0382 14.1206C21.2629 13.6725 21.515 13.2518 21.8233 12.8873C22.4125 12.2144 23.1964 11.8499 24.0652 11.8499C24.934 11.8499 25.7192 12.2144 26.3071 12.8873C26.6154 13.2518 26.8676 13.6725 27.0923 14.1206C27.317 14.5412 27.5404 14.9894 27.7651 15.4087L27.85 15.5773C29.9796 19.7527 32.0542 24.0131 33.9878 28.1898V28.2172C34.2125 28.6654 34.4084 29.171 34.6318 29.6191C34.7716 29.9561 34.9127 30.2357 34.9963 30.5153C35.2198 31.2456 35.3034 31.9459 35.191 32.6749ZM24.0077 31.3567C22.4949 29.4505 21.5137 27.6568 21.1766 26.1439C21.0368 25.4985 21.0081 24.938 21.093 24.4337C21.1492 23.9856 21.3177 23.5924 21.5411 23.2566C22.0742 22.5002 22.9704 22.0233 24.0077 22.0233C25.0451 22.0233 25.97 22.4728 26.4743 23.2566C26.699 23.5937 26.8663 23.9856 26.9224 24.4337C27.0061 24.938 26.9786 25.5272 26.8388 26.1439C26.5031 27.6293 25.5219 29.4231 24.0077 31.3567ZM36.649 29.9C36.5092 29.5642 36.3681 29.1997 36.2283 28.8914C36.0036 28.3871 35.7802 27.9102 35.5829 27.4621L35.5555 27.4347C33.622 23.2305 31.5473 18.9701 29.3616 14.766L29.278 14.5974C29.0533 14.1767 28.8299 13.7286 28.6052 13.2805C28.3243 12.7762 28.0447 12.2432 27.5966 11.7389C26.699 10.6166 25.4096 10 24.0365 10C22.6346 10 21.3739 10.6166 20.4476 11.6814C20.027 12.1857 19.7186 12.7187 19.4391 13.223C19.2143 13.6711 18.9909 14.1193 18.7662 14.5399L18.6826 14.7072C16.5243 18.9113 14.4223 23.1717 12.4887 27.3759L12.4613 27.4321C12.2653 27.8802 12.0406 28.357 11.8159 28.8613C11.6656 29.1932 11.5258 29.5302 11.3952 29.8699C11.0307 30.9072 10.9183 31.8884 11.0581 32.897C11.3664 34.9991 12.7683 36.7654 14.7018 37.5493C15.4308 37.8576 16.1873 37.9974 16.9725 37.9974C17.1972 37.9974 17.4768 37.97 17.7015 37.9412C18.6264 37.8289 19.5788 37.5218 20.5038 36.9888C21.6535 36.3447 22.7457 35.4197 23.979 34.0741C25.2123 35.4197 26.3332 36.3447 27.4542 36.9888C28.3791 37.5218 29.3315 37.8289 30.2565 37.9412C30.4812 37.97 30.7608 37.9974 30.9855 37.9974C31.7707 37.9974 32.5546 37.8576 33.2561 37.5493C35.2184 36.7641 36.5915 34.9703 36.8999 32.897C37.1246 31.9171 37.0122 30.9373 36.649 29.9Z" fill="#E0565B"/>
</svg>
