<svg width="48" height="48" viewBox="0 0 48 48" fill="none" xmlns="http://www.w3.org/2000/svg">
<circle cx="24" cy="24" r="24" fill="#1185FD" fill-opacity="0.2"/>
<path d="M24.5129 23.782C23.3426 21.506 20.1555 17.2643 17.1923 15.1724C14.3537 13.1684 13.2708 13.5156 12.5609 13.8364C11.7392 14.2077 11.5898 15.4692 11.5898 16.2114C11.5898 16.9536 11.9967 22.2964 12.2621 23.1883C13.1391 26.135 16.2608 27.1308 19.1358 26.8112C19.2827 26.7894 19.4318 26.7693 19.5827 26.7506C19.4347 26.7743 19.2855 26.7945 19.1358 26.8112C14.9226 27.4352 11.1809 28.9706 16.0884 34.4339C21.4866 40.0232 23.4866 33.2355 24.5129 29.794C25.5392 33.2355 26.7213 39.7784 32.8408 34.4339C37.436 29.794 34.1033 27.4354 29.8901 26.8113C29.7403 26.7947 29.5912 26.7745 29.4431 26.7508C29.5941 26.7694 29.7431 26.7896 29.8901 26.8113C32.765 27.131 35.8867 26.1352 36.7637 23.1885C37.0291 22.2967 37.436 16.9538 37.436 16.2116C37.436 15.4694 37.2866 14.2079 36.4649 13.8366C35.755 13.5158 34.6721 13.1686 31.8335 15.1726C28.8703 17.2645 25.6832 21.506 24.5129 23.782Z" fill="#1185FD"/>
</svg>
