<svg width="48" height="48" viewBox="0 0 48 48" fill="none" xmlns="http://www.w3.org/2000/svg">
<circle cx="24" cy="24" r="24" fill="#625DF5" fill-opacity="0.2"/>
<g clip-path="url(#clip0_614_317)">
<path d="M38.4001 22.3986H29.9786L37.2719 18.1877L35.6703 15.4127L28.3769 19.6235L32.5868 12.3307L29.8117 10.728L25.6019 18.021V9.60001H22.3983V18.0218L18.1868 10.728L15.4126 12.3299L19.6234 19.6226L12.3299 15.4127L10.7281 18.1869L18.0215 22.3978H9.6001V25.6014H18.0207L10.7281 29.8123L12.3299 32.5874L19.6226 28.3773L15.4117 35.6701L18.1868 37.272L22.3975 29.9784V38.4H25.6011V29.979L29.8111 37.272L32.5859 35.6701L28.3752 28.3765L35.6686 32.5874L37.2706 29.8123L29.9778 25.6022H38.3984V22.3986H38.4001ZM24.0001 28.3571C21.5845 28.3571 19.6265 26.3993 19.6265 23.9836C19.6265 21.568 21.5845 19.61 24.0001 19.61C26.4157 19.61 28.3735 21.568 28.3735 23.9836C28.3735 26.3993 26.4157 28.3571 24.0001 28.3571Z" fill="#625DF5"/>
</g>
<defs>
<clipPath id="clip0_614_317">
<rect width="28.8" height="28.8" fill="white" transform="translate(9.6001 9.60001)"/>
</clipPath>
</defs>
</svg>
