<svg width="48" height="48" viewBox="0 0 48 48" fill="none" xmlns="http://www.w3.org/2000/svg">
<circle cx="24" cy="24" r="24" fill="#FDDD4C" fill-opacity="0.2"/>
<path d="M24 11.75C17.2434 11.75 11.75 17.2434 11.75 24C11.75 30.7566 17.2434 36.25 24 36.25C30.7566 36.25 36.25 30.7566 36.25 24C36.25 17.2434 30.7566 11.75 24 11.75Z" fill="#FDDD4C"/>
<path d="M18.6352 27.1939C18.3674 26.7884 19.0411 26.1746 18.7671 25.6593C18.6091 25.3621 18.3509 25.1769 18.0408 25.138C17.7432 25.1007 17.4367 25.2096 17.2413 25.4225C16.9328 25.7582 16.8848 26.2152 16.9445 26.3769C16.9663 26.4362 17.0006 26.4524 17.0252 26.4559C17.1932 26.478 17.2878 26.0467 17.3458 25.9569C17.5062 25.7093 17.8704 25.6344 18.122 25.7971C18.5989 26.1056 18.1853 26.6042 18.221 27.0253C18.2557 27.4353 18.5112 27.6001 18.7405 27.6174C18.9636 27.6259 19.1197 27.5019 19.159 27.4114C19.2535 27.1954 18.8556 27.5276 18.6352 27.1939Z" fill="black"/>
<path d="M28.6005 23.4714C28.4754 23.454 28.3387 23.4545 28.1964 23.4714C28.0884 23.3351 27.9916 23.1144 27.937 22.8569C27.8399 22.3988 27.8501 22.0669 28.1211 22.0238C28.3922 21.9806 28.5233 22.2578 28.6204 22.716C28.6855 23.024 28.673 23.307 28.6005 23.4714Z" fill="black"/>
<path d="M25.6315 23.7439C25.6423 23.8477 25.646 23.9527 25.643 24.0493C25.9053 24.0647 26.0911 24.1893 26.1405 24.2683C26.1659 24.3091 26.1557 24.3357 26.1476 24.348C26.1204 24.3903 26.0622 24.3837 25.9403 24.3701C25.8339 24.3581 25.7192 24.3476 25.6001 24.3531C25.5352 24.5519 25.3429 24.5705 25.2079 24.4235C25.1135 24.4522 24.9282 24.5706 24.8729 24.442C24.8725 24.3781 24.9392 24.2854 25.0601 24.2034C24.9776 24.0461 24.9223 23.8776 24.8896 23.7031C24.7182 23.734 24.5641 23.782 24.4433 23.8196C24.3865 23.8372 24.1621 23.9386 24.1358 23.8244C24.1182 23.7454 24.2411 23.6153 24.371 23.5214C24.5161 23.4183 24.6771 23.3451 24.844 23.3029C24.8404 23.0543 24.9038 22.881 25.0844 22.8523C25.3082 22.8167 25.447 22.989 25.543 23.3082C25.8135 23.3833 26.0837 23.5697 26.203 23.7624C26.2494 23.8371 26.2583 23.8948 26.2283 23.9252C26.1533 24.003 25.7379 23.7777 25.6315 23.7439Z" fill="black"/>
<path d="M27.4105 24.8608C27.5821 24.944 27.7709 24.9112 27.8325 24.7877C27.8941 24.6641 27.8048 24.4966 27.6332 24.4134C27.4616 24.3303 27.2728 24.363 27.2112 24.4866C27.1496 24.6102 27.2389 24.7777 27.4105 24.8608Z" fill="black"/>
<path d="M28.2553 24.2471C28.2584 24.0581 28.3742 23.9072 28.5135 23.9095C28.6527 23.9122 28.7631 24.0669 28.76 24.2556C28.7568 24.4442 28.641 24.5952 28.5018 24.5928C28.3625 24.5905 28.2522 24.4358 28.2553 24.2471Z" fill="black"/>
<path fill-rule="evenodd" clip-rule="evenodd" d="M32.0312 26.5621C32.03 26.5582 32.0339 26.5718 32.0312 26.5621C32.3108 26.5621 32.75 26.8794 32.75 27.6459C32.75 28.4086 32.4294 29.2725 32.3537 29.4642C31.1989 32.1962 28.4425 33.7169 25.1592 33.6207C22.0983 33.531 19.4878 31.9367 18.3454 29.3376C17.6547 29.3384 16.9425 29.0384 16.4011 28.5649C15.8305 28.0659 15.4787 27.4203 15.4101 26.7469C15.3566 26.2226 15.4218 25.7348 15.5883 25.3093L14.9467 24.7727C12.0106 22.3256 21.1938 12.2502 24.1307 14.7789C24.1456 14.7916 25.13 15.7448 25.1323 15.7471C26.5484 15.1536 30.3428 14.0236 30.347 16.6542C30.3486 17.5278 29.7846 18.5465 28.8809 19.4708C29.9253 20.4269 29.6499 21.7849 29.8162 23.0309L30.1789 23.1303C30.8704 23.3216 31.3623 23.5768 31.6029 23.8263C31.8436 24.0754 31.9629 24.3168 32.0062 24.5998C32.0468 24.8281 32.0413 25.2312 31.7363 25.682C31.8461 25.9728 31.9464 26.2628 32.0312 26.5621ZM18.2935 28.6288C18.3961 28.6311 18.4979 28.6246 18.5978 28.6076C19.6707 28.4271 19.9516 27.2767 19.7749 26.1471C19.5752 24.8716 18.7011 24.4219 18.1079 24.39C17.9429 24.3815 17.7896 24.3961 17.6633 24.4212C16.6043 24.6317 16.0064 25.5211 16.1242 26.6761C16.2307 27.7214 17.3017 28.6026 18.2935 28.6288ZM15.8952 24.7345C16.2506 24.2252 16.8313 23.8567 17.4905 23.7301C18.3294 21.5071 19.7304 19.4589 21.5846 18.0494C22.9606 16.9164 24.4447 16.1036 24.4447 16.1036C24.4447 16.1036 23.6455 15.1889 23.4041 15.1215C21.9193 14.7257 18.7124 16.9087 16.6648 19.7931C15.8364 20.96 14.6503 23.0267 15.2174 24.0897C15.2872 24.2213 15.6831 24.5598 15.8952 24.7345ZM27.9335 28.1183C27.9359 28.1422 27.921 28.1668 27.8996 28.1757C27.8996 28.1757 26.7065 28.7235 24.8113 28.1449C24.8795 28.7129 25.5684 28.9282 26.0497 29.0061C28.398 29.405 30.5935 28.0794 31.0877 27.7456C31.1726 27.6883 31.0867 27.8356 31.0713 27.8573C30.4664 28.6276 28.84 29.5197 26.724 29.5193C25.8012 29.5189 24.8788 29.1982 24.5403 28.705C24.0149 27.94 24.5141 26.8232 25.3897 26.9394C26.8698 27.1044 28.3872 26.9804 29.7573 26.3527C30.952 25.8052 31.4032 25.2031 31.3354 24.7153C31.2301 23.9593 30.1093 23.8411 29.5428 23.6573C29.2963 23.5769 29.1746 23.5126 29.1469 23.0548C29.1348 22.855 29.0997 22.1577 29.0868 21.8694C29.0642 21.3646 29.0026 20.6743 28.5689 20.3894C28.4558 20.3151 28.3302 20.2793 28.198 20.2724C28.0925 20.2674 28.03 20.2819 27.9964 20.2896C27.9889 20.2914 27.9828 20.2928 27.978 20.2936C27.7438 20.3329 27.6003 20.4514 27.431 20.5911C27.4213 20.5991 27.4115 20.6073 27.4015 20.6154C26.8605 21.0605 26.4038 21.1333 25.8956 21.1117C25.7373 21.1051 25.5742 21.0893 25.4021 21.0726C25.2439 21.0573 25.078 21.0412 24.9014 21.0309L24.6857 21.0185C23.8347 20.9754 22.922 21.7008 22.7703 22.731C22.6008 23.881 23.2436 24.5854 23.6616 25.0434C23.7649 25.1566 23.8545 25.2548 23.9147 25.3409C23.9533 25.3929 23.9981 25.466 23.9981 25.5357C23.9981 25.6189 23.9435 25.6847 23.8901 25.7409C23.0219 26.6222 22.7442 28.0224 23.0714 29.1894C23.1124 29.3349 23.1642 29.4743 23.2255 29.6075C23.993 31.3781 26.3746 32.2027 28.7007 31.4528C30.331 30.9271 31.7714 29.6569 32.0647 27.9046C32.1345 27.448 32.032 27.2717 31.8923 27.1866C31.7445 27.0969 31.5674 27.1281 31.5674 27.1281C31.5674 27.1281 31.4867 26.5825 31.2581 26.0867C30.5799 26.6149 29.707 26.986 29.0424 27.1743C27.9775 27.4758 26.8273 27.5932 25.727 27.451C25.2807 27.3934 24.9808 27.3546 24.8523 27.7668C26.32 28.2973 27.8735 28.0702 27.8735 28.0702C27.9035 28.0671 27.9304 28.0886 27.9335 28.1183ZM23.699 17.823C22.8963 18.2284 22 18.9503 21.2722 19.7808C21.2465 19.8104 21.2847 19.8512 21.3163 19.8285C21.945 19.3769 22.807 18.9573 23.9361 18.6854C25.201 18.3809 26.4186 18.5087 27.1624 18.677C27.1999 18.6854 27.2233 18.6219 27.1901 18.6034C26.6987 18.3312 25.9444 18.1464 25.4092 18.1426C25.3831 18.1422 25.3683 18.1122 25.3839 18.0914C25.4763 17.9686 25.6031 17.8473 25.7189 17.7595C25.7447 17.7395 25.7291 17.6983 25.6963 17.7002C25.0306 17.7406 23.5102 18.4339 23.5157 18.4086C23.5547 18.2238 23.6775 17.9797 23.7411 17.8658C23.7563 17.8388 23.7267 17.8092 23.699 17.823Z" fill="black"/>
</svg>
