<svg width="48" height="48" viewBox="0 0 48 48" fill="none" xmlns="http://www.w3.org/2000/svg">
<circle cx="24" cy="24" r="24" fill="#F1F0F0"/>
<g clip-path="url(#clip0_614_330)">
<path d="M12.6813 11.2055L28.1437 10.0635C30.043 9.90053 30.531 10.0104 31.7252 10.8785L36.6611 14.3558C37.4753 14.9537 37.7463 15.1168 37.7463 15.7679V34.8379C37.7463 36.033 37.3122 36.7399 35.793 36.848L17.837 37.935C16.6969 37.989 16.1539 37.826 15.5568 37.065L11.9221 32.3388C11.2702 31.4688 11 30.8176 11 30.0566V13.1057C11 12.1286 11.4341 11.3136 12.6813 11.2055Z" fill="white"/>
<path d="M28.1437 10.0635L12.6813 11.2055C11.4341 11.3136 11 12.1286 11 13.1057V30.0567C11 30.8177 11.2701 31.4688 11.9221 32.3388L15.5568 37.065C16.1539 37.826 16.6969 37.989 17.837 37.935L35.793 36.848C37.3112 36.7399 37.7463 36.033 37.7463 34.8379V15.7679C37.7463 15.1503 37.5022 14.9724 36.784 14.4452L36.6602 14.3558L31.7252 10.8785C30.531 10.0104 30.0431 9.90053 28.1437 10.0635ZM18.2431 15.4558C16.777 15.5545 16.4444 15.5769 15.6117 14.8997L13.4945 13.2156C13.2793 12.9977 13.3873 12.7256 13.9294 12.6716L28.7939 11.5855C30.0421 11.4766 30.6923 11.9115 31.1804 12.2916L33.7297 14.1388C33.8387 14.1936 34.1098 14.5188 33.7837 14.5188L18.4332 15.4428L18.2431 15.4558ZM16.5339 34.6749V18.4859C16.5339 17.7789 16.7509 17.4529 17.401 17.3979L35.0319 16.3658C35.63 16.3118 35.9002 16.6918 35.9002 17.3979V33.4788C35.9002 34.1858 35.7911 34.7838 34.8149 34.8379L17.9432 35.8159C16.967 35.8699 16.5339 35.5449 16.5339 34.6749ZM33.1886 19.3539C33.2967 19.8429 33.1886 20.332 32.6996 20.3879L31.8864 20.549V32.5016C31.1804 32.8816 30.5302 33.0987 29.987 33.0987C29.119 33.0987 28.9019 32.8267 28.2518 32.0126L22.9341 23.6461V31.7406L24.6161 32.1216C24.6161 32.1216 24.6161 33.0997 23.2591 33.0997L19.5173 33.3167C19.4084 33.0987 19.5173 32.5557 19.8966 32.4476L20.8736 32.1765V21.474L19.5174 21.3641C19.4084 20.8752 19.6794 20.169 20.4396 20.1141L24.4542 19.844L29.9871 28.3185V20.8212L28.5769 20.659C28.4679 20.06 28.9019 19.6251 29.4441 19.572L33.1885 19.354L33.1886 19.3539Z" fill="black"/>
</g>
<defs>
<clipPath id="clip0_614_330">
<rect width="26.7463" height="28" fill="white" transform="translate(11 10)"/>
</clipPath>
</defs>
</svg>
