<svg width="48" height="48" viewBox="0 0 48 48" fill="none" xmlns="http://www.w3.org/2000/svg">
<circle cx="24" cy="24" r="24" fill="#98CA3F" fill-opacity="0.2"/>
<path d="M22.4134 11.3183L12.9051 20.8267C12.4874 21.2429 12.156 21.7374 11.9299 22.282C11.7038 22.8265 11.5874 23.4104 11.5874 24C11.5874 24.5896 11.7038 25.1735 11.9299 25.718C12.156 26.2626 12.4874 26.7571 12.9051 27.1733L22.4134 36.6817C22.8296 37.0993 23.3242 37.4307 23.8687 37.6568C24.4133 37.8829 24.9971 37.9993 25.5867 37.9993C26.1764 37.9993 26.7602 37.8829 27.3047 37.6568C27.8493 37.4307 28.3439 37.0993 28.7601 36.6817L31.9334 33.52L28.7601 30.3467L25.5867 33.52L16.0667 24L25.5867 14.48L31.9334 20.8267L25.5867 27.1733L28.7601 30.3467L35.0834 24C35.5011 23.5838 35.8324 23.0892 36.0586 22.5447C36.2847 22.0001 36.4011 21.4163 36.4011 20.8267C36.4011 20.237 36.2847 19.6532 36.0586 19.1086C35.8324 18.5641 35.5011 18.0695 35.0834 17.6533L28.7367 11.3183C28.3215 10.901 27.8279 10.5699 27.2844 10.3439C26.7408 10.118 26.1579 10.0016 25.5692 10.0016C24.9806 10.0016 24.3977 10.118 23.8541 10.3439C23.3105 10.5699 22.8169 10.901 22.4017 11.3183H22.4134Z" fill="#98CA3F"/>
</svg>
