<svg width="48" height="48" viewBox="0 0 48 48" fill="none" xmlns="http://www.w3.org/2000/svg">
<circle cx="24" cy="24" r="24" fill="#1ED760" fill-opacity="0.2"/>
<g clip-path="url(#clip0_614_334)">
<path d="M24 10C16.2681 10 10 16.2682 10 24C10 31.7324 16.2682 38 24 38C31.7325 38 38 31.7324 38 24C38 16.2687 31.7325 10.0008 23.9998 10.0008L23.9999 10.0001L24 10ZM30.4202 30.1922C30.1694 30.6034 29.6311 30.7338 29.2198 30.4813C25.9328 28.4735 21.7949 28.0188 16.9217 29.1322C16.696 29.1836 16.4592 29.1432 16.2633 29.02C16.0674 28.8968 15.9284 28.7008 15.8769 28.4752C15.8513 28.3635 15.8479 28.2478 15.867 28.1348C15.8862 28.0218 15.9274 27.9137 15.9883 27.8166C16.0493 27.7196 16.1288 27.6355 16.2223 27.5692C16.3158 27.5029 16.4214 27.4557 16.5332 27.4303C21.8663 26.2119 26.4407 26.7365 30.131 28.9918C30.5423 29.2442 30.6726 29.7809 30.4202 30.1922ZM32.1338 26.3801C31.8177 26.8936 31.1457 27.0558 30.6325 26.7398C26.8693 24.4268 21.133 23.7569 16.6819 25.108C16.1047 25.2823 15.495 24.957 15.3198 24.3807C15.1459 23.8035 15.4714 23.1949 16.0477 23.0195C21.132 21.4766 27.4527 22.224 31.7744 24.8796C32.2876 25.1957 32.4498 25.8676 32.1338 26.3801ZM32.2809 22.4106C27.7687 19.7304 20.3243 19.4839 16.0164 20.7916C15.3246 21.0014 14.593 20.6108 14.3834 19.919C14.1737 19.2269 14.5639 18.4958 15.2562 18.2855C20.2014 16.7842 28.4225 17.0744 33.6172 20.1583C34.2409 20.5276 34.4448 21.3313 34.0753 21.9526C33.7076 22.575 32.9017 22.78 32.2815 22.4106H32.2809Z" fill="#1ED760"/>
</g>
<defs>
<clipPath id="clip0_614_334">
<rect width="28" height="28" fill="white" transform="translate(10 10)"/>
</clipPath>
</defs>
</svg>
