<svg width="48" height="48" viewBox="0 0 48 48" fill="none" xmlns="http://www.w3.org/2000/svg">
<circle cx="24" cy="24" r="24" fill="#4945FF" fill-opacity="0.2"/>
<g clip-path="url(#clip0_614_353)">
<path d="M10 19.7067C10 15.1309 10 12.843 11.4215 11.4215C12.843 10 15.1308 10 19.7067 10H28.2934C32.8691 10 35.1569 10 36.5786 11.4215C38 12.843 38 15.1308 38 19.7067V28.2934C38 32.8691 38 35.1569 36.5785 36.5786C35.1569 38 32.8692 38 28.2933 38H19.7068C15.131 38 12.8431 38 11.4217 36.5785C10 35.1569 10 32.8692 10 28.2933V19.7067Z" fill="#4945FF"/>
<path d="M29.3198 18.4933H19.8931V23.3H24.6998V28.1066H29.5064V18.68C29.5064 18.5769 29.4228 18.4933 29.3198 18.4933Z" fill="white"/>
<path d="M24.5132 23.3H24.6999V23.4867H24.5132V23.3Z" fill="white"/>
<path d="M19.8931 23.3H24.5131C24.6162 23.3 24.6998 23.3836 24.6998 23.4866V28.1066H20.0798C20.0553 28.1066 20.031 28.1018 20.0084 28.0924C19.9857 28.0831 19.9651 28.0693 19.9478 28.052C19.9305 28.0347 19.9167 28.0141 19.9073 27.9914C19.8979 27.9688 19.8931 27.9445 19.8931 27.92V23.3ZM24.6998 28.1066H29.5064L24.8591 32.7539C24.8003 32.8128 24.6998 32.7711 24.6998 32.6881V28.1066ZM19.8931 23.3H15.3117C15.2286 23.3 15.187 23.1994 15.2458 23.1406L19.8931 18.4933V23.3Z" fill="#9593FF"/>
</g>
<defs>
<clipPath id="clip0_614_353">
<rect width="28" height="28" fill="white" transform="translate(10 10)"/>
</clipPath>
</defs>
</svg>
