<svg width="38" height="47" viewBox="0 0 38 47" fill="none" xmlns="http://www.w3.org/2000/svg">
<path d="M1.00385 22.5211C0.757407 32.5018 12.4369 45.3872 12.4369 45.3872C12.4369 45.3872 26.166 32.8775 25.8876 22.5211C25.6212 12.6137 12.4369 1 12.4369 1C12.4369 1 1.23876 13.0071 1.00385 22.5211Z" fill="#58DCC5" stroke="#2AC6AB"/>
<mask id="path-2-inside-1_614_151" fill="white">
<path fill-rule="evenodd" clip-rule="evenodd" d="M12.4102 46.0091C12.4102 46.0091 11.8822 31.2791 17.4947 24.9467C22.8447 18.9105 36.6604 17.2484 36.6604 17.2484C36.6604 17.2484 38.8583 31.9765 33.6181 38.5416C28.1404 45.4041 12.4102 46.0091 12.4102 46.0091Z"/>
</mask>
<path fill-rule="evenodd" clip-rule="evenodd" d="M12.4102 46.0091C12.4102 46.0091 11.8822 31.2791 17.4947 24.9467C22.8447 18.9105 36.6604 17.2484 36.6604 17.2484C36.6604 17.2484 38.8583 31.9765 33.6181 38.5416C28.1404 45.4041 12.4102 46.0091 12.4102 46.0091Z" fill="#625AFF"/>
<path d="M17.4947 24.9467L16.7463 24.2834L17.4947 24.9467ZM12.4102 46.0091L11.4109 46.045L11.4468 47.0469L12.4486 47.0084L12.4102 46.0091ZM36.6604 17.2484L37.6495 17.1008L37.506 16.1395L36.541 16.2556L36.6604 17.2484ZM33.6181 38.5416L32.8366 37.9177L33.6181 38.5416ZM16.7463 24.2834C13.7226 27.695 12.4277 33.2339 11.8558 37.7263C11.5657 40.0051 11.4545 42.0791 11.4157 43.5828C11.3963 44.3354 11.395 44.947 11.3985 45.3722C11.4003 45.5848 11.4033 45.751 11.4059 45.865C11.4072 45.922 11.4084 45.9659 11.4093 45.9962C11.4098 46.0113 11.4101 46.023 11.4104 46.0311C11.4105 46.0352 11.4106 46.0384 11.4107 46.0407C11.4107 46.0419 11.4108 46.0428 11.4108 46.0435C11.4108 46.0439 11.4108 46.0442 11.4108 46.0444C11.4108 46.0447 11.4109 46.045 12.4102 46.0091C13.4096 45.9733 13.4096 45.9734 13.4096 45.9735C13.4096 45.9735 13.4096 45.9735 13.4096 45.9734C13.4096 45.9732 13.4096 45.9728 13.4095 45.9722C13.4095 45.9709 13.4094 45.9688 13.4093 45.9657C13.4091 45.9597 13.4088 45.9501 13.4084 45.9372C13.4077 45.9113 13.4066 45.8718 13.4054 45.8193C13.403 45.7145 13.4001 45.558 13.3985 45.3555C13.3951 44.9504 13.3963 44.3617 13.4151 43.6344C13.4526 42.1784 13.5603 40.1741 13.8398 37.9789C14.407 33.5232 15.6542 28.5309 18.2431 25.61L16.7463 24.2834ZM36.6604 17.2484C36.541 16.2556 36.5408 16.2556 36.5405 16.2556C36.5403 16.2557 36.54 16.2557 36.5396 16.2557C36.5389 16.2558 36.5381 16.2559 36.537 16.2561C36.5348 16.2563 36.5318 16.2567 36.5279 16.2572C36.5203 16.2581 36.5093 16.2595 36.4951 16.2613C36.4667 16.2649 36.4254 16.2702 36.372 16.2773C36.2651 16.2915 36.1095 16.313 35.9105 16.3423C35.5126 16.401 34.9411 16.4912 34.2396 16.6185C32.8381 16.8728 30.911 17.2759 28.8108 17.872C24.6695 19.0473 19.6272 21.0331 16.7463 24.2834L18.2431 25.61C20.7122 22.8241 25.2528 20.9607 29.3568 19.796C31.3793 19.222 33.2406 18.8324 34.5966 18.5864C35.274 18.4635 35.8236 18.3767 36.2022 18.3209C36.3915 18.293 36.5378 18.2729 36.636 18.2598C36.685 18.2533 36.722 18.2485 36.7462 18.2455C36.7583 18.2439 36.7672 18.2428 36.7729 18.2421C36.7757 18.2418 36.7777 18.2415 36.7789 18.2414C36.7795 18.2413 36.7798 18.2413 36.78 18.2412C36.7801 18.2412 36.7801 18.2412 36.7801 18.2412C36.78 18.2412 36.7799 18.2413 36.6604 17.2484ZM34.3997 39.1654C35.838 37.3634 36.7296 35.0525 37.2787 32.6694C37.8296 30.278 38.0503 27.7494 38.1041 25.4565C38.1579 23.1603 38.0448 21.0772 37.9185 19.5688C37.8553 18.8139 37.7886 18.2009 37.7375 17.7749C37.712 17.5619 37.6903 17.3955 37.6748 17.2813C37.6671 17.2242 37.6609 17.1801 37.6566 17.1498C37.6544 17.1347 37.6527 17.1229 37.6515 17.1148C37.6509 17.1107 37.6505 17.1074 37.6501 17.1051C37.65 17.1039 37.6498 17.103 37.6497 17.1023C37.6497 17.1019 37.6496 17.1016 37.6496 17.1014C37.6495 17.1011 37.6495 17.1008 36.6604 17.2484C35.6714 17.396 35.6714 17.3959 35.6714 17.3958C35.6714 17.3958 35.6714 17.3958 35.6714 17.3959C35.6714 17.3961 35.6715 17.3965 35.6716 17.3971C35.6717 17.3983 35.6721 17.4005 35.6725 17.4035C35.6734 17.4095 35.6747 17.419 35.6766 17.4319C35.6803 17.4577 35.6858 17.4972 35.6929 17.5496C35.7071 17.6543 35.7275 17.8107 35.7518 18.0132C35.8004 18.4183 35.8645 19.0073 35.9255 19.7357C36.0475 21.194 36.1564 23.2032 36.1046 25.4097C36.0528 27.6195 35.8404 30.0038 35.3297 32.2204C34.8171 34.4452 34.0183 36.4372 32.8366 37.9177L34.3997 39.1654ZM12.4102 46.0091C12.4486 47.0084 12.4489 47.0084 12.4492 47.0084C12.4494 47.0084 12.4498 47.0083 12.4502 47.0083C12.4509 47.0083 12.4519 47.0083 12.4532 47.0082C12.4556 47.0081 12.4591 47.008 12.4634 47.0078C12.4721 47.0074 12.4846 47.0069 12.5007 47.0062C12.5329 47.0047 12.5798 47.0025 12.6405 46.9993C12.762 46.9929 12.9388 46.9828 13.1646 46.9674C13.6162 46.9368 14.2644 46.8853 15.0582 46.8019C16.644 46.6353 18.8195 46.3402 21.1735 45.8257C23.524 45.3121 26.0772 44.5744 28.4077 43.5137C30.7306 42.4565 32.8953 41.0501 34.3997 39.1654L32.8366 37.9177C31.6021 39.4643 29.7464 40.707 27.5793 41.6933C25.4198 42.6762 23.0133 43.3765 20.7465 43.8719C18.4833 44.3665 16.3839 44.6516 14.8492 44.8128C14.0826 44.8934 13.4591 44.9428 13.029 44.972C12.8141 44.9866 12.6476 44.9962 12.5359 45.002C12.48 45.005 12.4379 45.007 12.4103 45.0082C12.3965 45.0088 12.3863 45.0093 12.3799 45.0095C12.3766 45.0097 12.3743 45.0098 12.373 45.0098C12.3723 45.0099 12.3719 45.0099 12.3717 45.0099C12.3716 45.0099 12.3716 45.0099 12.3715 45.0099C12.3716 45.0099 12.3718 45.0099 12.4102 46.0091Z" fill="#2E24FF" mask="url(#path-2-inside-1_614_151)"/>
</svg>
