<svg width="46" height="41" viewBox="0 0 46 41" fill="none" xmlns="http://www.w3.org/2000/svg">
<mask id="path-1-inside-1_614_157" fill="white">
<path fill-rule="evenodd" clip-rule="evenodd" d="M6.64282 16.0372C2.38949 11.7839 0 6.01511 0 0H22.68L45.36 3.42458e-06C45.36 6.01511 42.9705 11.7839 38.7172 16.0372C34.4639 20.2905 28.6951 22.68 22.68 22.68C16.6649 22.68 10.8961 20.2905 6.64282 16.0372Z"/>
</mask>
<path fill-rule="evenodd" clip-rule="evenodd" d="M6.64282 16.0372C2.38949 11.7839 0 6.01511 0 0H22.68L45.36 3.42458e-06C45.36 6.01511 42.9705 11.7839 38.7172 16.0372C34.4639 20.2905 28.6951 22.68 22.68 22.68C16.6649 22.68 10.8961 20.2905 6.64282 16.0372Z" fill="#58DCC5"/>
<path d="M0 0V-1H-1V0H0ZM6.64282 16.0372L5.93571 16.7443H5.93571L6.64282 16.0372ZM22.68 0V-1V0ZM45.36 3.42458e-06H46.36V-0.999996L45.36 -0.999997V3.42458e-06ZM38.7172 16.0372L39.4243 16.7443L38.7172 16.0372ZM-1 0C-1 6.28033 1.49485 12.3034 5.93571 16.7443L7.34992 15.3301C3.28414 11.2643 1 5.74989 1 0H-1ZM22.68 -1H0V1H22.68V-1ZM45.36 -0.999997L22.68 -1V1L45.36 1V-0.999997ZM39.4243 16.7443C43.8651 12.3034 46.36 6.28033 46.36 3.42458e-06H44.36C44.36 5.7499 42.0759 11.2643 38.0101 15.3301L39.4243 16.7443ZM22.68 23.68C28.9603 23.68 34.9834 21.1852 39.4243 16.7443L38.0101 15.3301C33.9443 19.3959 28.4299 21.68 22.68 21.68V23.68ZM5.93571 16.7443C10.3766 21.1852 16.3997 23.68 22.68 23.68V21.68C16.9301 21.68 11.4157 19.3959 7.34992 15.3301L5.93571 16.7443Z" fill="#2CD3B6" mask="url(#path-1-inside-1_614_157)"/>
<mask id="path-3-inside-2_614_157" fill="white">
<path fill-rule="evenodd" clip-rule="evenodd" d="M6.64282 24.4628C2.38949 28.7161 0 34.4849 0 40.5H22.68L45.36 40.5C45.36 34.4849 42.9705 28.7161 38.7172 24.4628C34.4639 20.2095 28.6951 17.82 22.68 17.82C16.6649 17.82 10.8961 20.2095 6.64282 24.4628Z"/>
</mask>
<path fill-rule="evenodd" clip-rule="evenodd" d="M6.64282 24.4628C2.38949 28.7161 0 34.4849 0 40.5H22.68L45.36 40.5C45.36 34.4849 42.9705 28.7161 38.7172 24.4628C34.4639 20.2095 28.6951 17.82 22.68 17.82C16.6649 17.82 10.8961 20.2095 6.64282 24.4628Z" fill="#625AFF"/>
<path d="M0 40.5H-1V41.5H0V40.5ZM22.68 40.5V41.5V40.5ZM45.36 40.5V41.5H46.36V40.5H45.36ZM38.7172 24.4628L39.4243 23.7557V23.7557L38.7172 24.4628ZM1 40.5C1 34.7501 3.28414 29.2357 7.34992 25.1699L5.93571 23.7557C1.49485 28.1966 -1 34.2197 -1 40.5H1ZM22.68 39.5H0V41.5H22.68V39.5ZM45.36 39.5L22.68 39.5V41.5L45.36 41.5V39.5ZM38.0101 25.1699C42.0759 29.2357 44.36 34.7501 44.36 40.5H46.36C46.36 34.2197 43.8651 28.1966 39.4243 23.7557L38.0101 25.1699ZM22.68 18.82C28.4299 18.82 33.9443 21.1041 38.0101 25.1699L39.4243 23.7557C34.9834 19.3148 28.9603 16.82 22.68 16.82V18.82ZM7.34992 25.1699C11.4157 21.1041 16.9301 18.82 22.68 18.82V16.82C16.3997 16.82 10.3766 19.3149 5.93571 23.7557L7.34992 25.1699Z" fill="#2E24FF" mask="url(#path-3-inside-2_614_157)"/>
</svg>
