<svg width="58" height="44" viewBox="0 0 58 44" fill="none" xmlns="http://www.w3.org/2000/svg">
<mask id="path-1-inside-1_614_144" fill="white">
<path fill-rule="evenodd" clip-rule="evenodd" d="M36.8559 25.9209L41.093 30.3878L28.7967 43.3508L24.1646 38.4675C24.1386 38.4411 24.1128 38.4143 24.0872 38.3873L1.7719 14.8621C-0.508603 12.4579 -0.508602 8.56003 1.7719 6.15587L5.83711 1.87025C8.11761 -0.533909 11.815 -0.533913 14.0955 1.87024L36.4108 25.3955C36.5703 25.5637 36.7187 25.7391 36.8559 25.9209Z"/>
</mask>
<path fill-rule="evenodd" clip-rule="evenodd" d="M36.8559 25.9209L41.093 30.3878L28.7967 43.3508L24.1646 38.4675C24.1386 38.4411 24.1128 38.4143 24.0872 38.3873L1.7719 14.8621C-0.508603 12.4579 -0.508602 8.56003 1.7719 6.15587L5.83711 1.87025C8.11761 -0.533909 11.815 -0.533913 14.0955 1.87024L36.4108 25.3955C36.5703 25.5637 36.7187 25.7391 36.8559 25.9209Z" fill="#625AFF"/>
<path d="M36.8559 25.9209L36.0578 26.5234L36.0917 26.5683L36.1304 26.6091L36.8559 25.9209ZM41.093 30.3878L41.8185 31.076L42.4713 30.3878L41.8185 29.6996L41.093 30.3878ZM28.7967 43.3508L28.0712 44.039L28.7967 44.8038L29.5223 44.039L28.7967 43.3508ZM24.1646 38.4675L24.8901 37.7793L24.8839 37.7727L24.8775 37.7662L24.1646 38.4675ZM24.0872 38.3873L23.3617 39.0755L23.3617 39.0755L24.0872 38.3873ZM1.7719 14.8621L2.49742 14.1739L2.49742 14.1739L1.7719 14.8621ZM1.7719 6.15587L2.49742 6.84408L2.49742 6.84408L1.7719 6.15587ZM5.83711 1.87025L5.11159 1.18204L5.11159 1.18204L5.83711 1.87025ZM14.0955 1.87024L13.37 2.55845L14.0955 1.87024ZM36.4108 25.3955L37.1363 24.7073L37.1363 24.7073L36.4108 25.3955ZM36.1304 26.6091L40.3675 31.076L41.8185 29.6996L37.5814 25.2327L36.1304 26.6091ZM40.3675 29.6996L28.0712 42.6626L29.5223 44.039L41.8185 31.076L40.3675 29.6996ZM29.5223 42.6626L24.8901 37.7793L23.4391 39.1557L28.0712 44.039L29.5223 42.6626ZM24.8775 37.7662C24.8557 37.7441 24.8341 37.7217 24.8127 37.6991L23.3617 39.0755C23.3915 39.107 23.4215 39.138 23.4517 39.1688L24.8775 37.7662ZM24.8127 37.6991L2.49742 14.1739L1.04638 15.5503L23.3617 39.0755L24.8127 37.6991ZM2.49742 14.1739C0.582891 12.1555 0.582891 8.86241 2.49742 6.84408L1.04638 5.46767C-1.6001 8.25764 -1.6001 12.7603 1.04638 15.5503L2.49742 14.1739ZM2.49742 6.84408L6.56262 2.55845L5.11159 1.18204L1.04638 5.46767L2.49742 6.84408ZM6.56262 2.55845C8.44878 0.570022 11.4839 0.570021 13.37 2.55845L14.8211 1.18204C12.1462 -1.63785 7.78644 -1.63784 5.11159 1.18204L6.56262 2.55845ZM13.37 2.55845L35.6853 26.0837L37.1363 24.7073L14.8211 1.18204L13.37 2.55845ZM35.6853 26.0837C35.8188 26.2244 35.943 26.3713 36.0578 26.5234L37.654 25.3184C37.4944 25.107 37.3219 24.9029 37.1363 24.7073L35.6853 26.0837Z" fill="#2E24FF" mask="url(#path-1-inside-1_614_144)"/>
<mask id="path-3-inside-2_614_144" fill="white">
<path fill-rule="evenodd" clip-rule="evenodd" d="M33.4153 38.8536L28.9228 43.5897L16.6265 30.6267L21.5098 25.4785C21.536 25.4498 21.5626 25.4213 21.5894 25.3931L43.9047 1.86783C46.1852 -0.536327 49.8826 -0.536326 52.1631 1.86783L56.2283 6.15346C58.5088 8.55761 58.5088 12.4555 56.2283 14.8597L33.913 38.3849C33.7537 38.5529 33.5875 38.7091 33.4153 38.8536Z"/>
</mask>
<path fill-rule="evenodd" clip-rule="evenodd" d="M33.4153 38.8536L28.9228 43.5897L16.6265 30.6267L21.5098 25.4785C21.536 25.4498 21.5626 25.4213 21.5894 25.3931L43.9047 1.86783C46.1852 -0.536327 49.8826 -0.536326 52.1631 1.86783L56.2283 6.15346C58.5088 8.55761 58.5088 12.4555 56.2283 14.8597L33.913 38.3849C33.7537 38.5529 33.5875 38.7091 33.4153 38.8536Z" fill="#FCA862"/>
<path d="M33.4153 38.8536L32.7725 38.0876C32.7434 38.1119 32.7158 38.1379 32.6897 38.1654L33.4153 38.8536ZM28.9228 43.5897L28.1972 44.2779C28.3861 44.477 28.6484 44.5897 28.9228 44.5897C29.1971 44.5897 29.4594 44.477 29.6483 44.2779L28.9228 43.5897ZM16.6265 30.6267L15.9009 29.9385C15.535 30.3243 15.535 30.9291 15.9009 31.3149L16.6265 30.6267ZM21.5098 25.4785L22.2354 26.1667C22.2397 26.1621 22.244 26.1575 22.2483 26.1528L21.5098 25.4785ZM21.5894 25.3931L22.3149 26.0813L22.3149 26.0813L21.5894 25.3931ZM43.9047 1.86783L43.1791 1.17963L43.1791 1.17963L43.9047 1.86783ZM52.1631 1.86783L51.4376 2.55603L51.4376 2.55603L52.1631 1.86783ZM56.2283 6.15346L56.9538 5.46525L56.9538 5.46525L56.2283 6.15346ZM56.2283 14.8597L55.5028 14.1715L55.5028 14.1715L56.2283 14.8597ZM33.913 38.3849L34.6385 39.0731L34.6385 39.0731L33.913 38.3849ZM32.6897 38.1654L28.1972 42.9015L29.6483 44.2779L34.1408 39.5418L32.6897 38.1654ZM29.6483 42.9015L17.352 29.9385L15.9009 31.3149L28.1972 44.2779L29.6483 42.9015ZM17.352 31.3149L22.2354 26.1667L20.7843 24.7903L15.9009 29.9385L17.352 31.3149ZM22.2483 26.1528C22.2702 26.1288 22.2924 26.1049 22.3149 26.0813L20.8639 24.7049C20.8327 24.7378 20.8018 24.7709 20.7714 24.8043L22.2483 26.1528ZM22.3149 26.0813L44.6302 2.55603L43.1791 1.17963L20.8639 24.7049L22.3149 26.0813ZM44.6302 2.55603C46.5163 0.567606 49.5514 0.567606 51.4376 2.55603L52.8886 1.17963C50.2138 -1.64026 45.854 -1.64026 43.1791 1.17963L44.6302 2.55603ZM51.4376 2.55603L55.5028 6.84166L56.9538 5.46525L52.8886 1.17963L51.4376 2.55603ZM55.5028 6.84166C57.4173 8.85999 57.4173 12.1531 55.5028 14.1715L56.9538 15.5479C59.6003 12.7579 59.6003 8.25523 56.9538 5.46525L55.5028 6.84166ZM55.5028 14.1715L33.1875 37.6967L34.6385 39.0731L56.9538 15.5479L55.5028 14.1715ZM33.1875 37.6967C33.0542 37.8373 32.9155 37.9675 32.7725 38.0876L34.0581 39.6196C34.2594 39.4507 34.4532 39.2685 34.6385 39.0731L33.1875 37.6967Z" fill="#FB8B2D" mask="url(#path-3-inside-2_614_144)"/>
</svg>
