<svg width="65" height="20" viewBox="0 0 65 20" fill="none" xmlns="http://www.w3.org/2000/svg">
<g clip-path="url(#clip0_614_335)">
<path d="M33.7742 5.0251C33.7742 5.74588 33.1934 6.32627 32.4726 6.32627C31.7518 6.32627 31.1714 5.74588 31.1714 5.0251C31.1714 4.30431 31.732 3.72392 32.4726 3.72392C33.2138 3.74392 33.7742 4.32451 33.7742 5.0251ZM28.4087 7.64785V7.96824C28.4087 7.96824 27.7883 7.16705 26.4669 7.16705C24.285 7.16705 22.583 8.82882 22.583 11.131C22.583 13.4133 24.265 15.0949 26.4669 15.0949C27.8083 15.0949 28.4087 14.2741 28.4087 14.2741V14.6143C28.4087 14.7745 28.5291 14.8943 28.6891 14.8943H30.3105V7.36665H28.6891C28.5291 7.36725 28.4087 7.50765 28.4087 7.64785ZM28.4087 12.4723C28.1087 12.9129 27.5079 13.2933 26.7873 13.2933C25.5062 13.2933 24.525 12.4925 24.525 11.131C24.525 9.7696 25.5062 8.96882 26.7873 8.96882C27.4881 8.96882 28.1287 9.36921 28.4087 9.7896V12.4723ZM31.5118 7.36725H33.4336V14.8949H31.5118V7.36725ZM60.2203 7.16686C58.8989 7.16686 58.2781 7.96804 58.2781 7.96804V3.74392H56.3563V14.8949H57.9781C58.1383 14.8949 58.2581 14.7547 58.2581 14.6145V14.2743C58.2581 14.2743 58.8789 15.0951 60.1999 15.0951C62.3822 15.0951 64.0838 13.4139 64.0838 11.1316C64.0838 8.84922 62.3822 7.16686 60.2203 7.16686ZM59.8999 13.2731C59.1589 13.2731 58.5785 12.8931 58.2781 12.4523V9.7696C58.5785 9.36921 59.2191 8.94882 59.8999 8.94882C61.181 8.94882 62.162 9.7496 62.162 11.111C62.162 12.4723 61.1812 13.2731 59.8999 13.2731ZM55.3556 10.4306V14.9149H53.4334V10.6506C53.4334 9.40961 53.033 8.90882 51.9526 8.90882C51.3722 8.90882 50.7715 9.20921 50.3905 9.6498V14.8951H48.4691V7.36745H49.9901C50.1503 7.36745 50.2705 7.50765 50.2705 7.64785V7.96824C50.8311 7.38745 51.5716 7.16705 52.3122 7.16705C53.1532 7.16705 53.854 7.40765 54.4146 7.88804C55.095 8.44863 55.3556 9.16922 55.3556 10.4306ZM43.8038 7.16686C42.4828 7.16686 41.862 7.96804 41.862 7.96804V3.74392H39.9403V14.8949H41.5616C41.7218 14.8949 41.842 14.7547 41.842 14.6145V14.2743C41.842 14.2743 42.4628 15.0951 43.7838 15.0951C45.9661 15.0951 47.6677 13.4139 47.6677 11.1316C47.6877 8.84902 45.9862 7.16686 43.8038 7.16686ZM43.4834 13.2731C42.7428 13.2731 42.1624 12.8931 41.862 12.4523V9.7696C42.1624 9.36921 42.803 8.94882 43.4834 8.94882C44.765 8.94882 45.7458 9.7496 45.7458 11.111C45.7458 12.4723 44.765 13.2731 43.4834 13.2731ZM38.2785 7.16686C38.8589 7.16686 39.1593 7.26725 39.1593 7.26725V9.04881C39.1593 9.04881 37.5577 8.50822 36.5569 9.6496V14.9147H34.6348V7.36725H36.2565C36.4167 7.36725 36.5365 7.50745 36.5365 7.64765V7.96804C36.8973 7.54745 37.6781 7.16686 38.2785 7.16686ZM18.3191 14.2141C18.2191 13.9739 18.1189 13.7137 18.0189 13.4933C17.8585 13.1331 17.6983 12.7925 17.5585 12.4723L17.5385 12.4523C16.1569 9.44921 14.6758 6.40647 13.114 3.40373L13.054 3.28333C12.8897 2.97183 12.7297 2.65814 12.5738 2.34235C12.3734 1.98176 12.1734 1.60176 11.853 1.24117C11.2124 0.440385 10.2915 -0.000205994 9.31068 -0.000205994C8.3095 -0.000205994 7.40872 0.440388 6.74834 1.20097C6.44794 1.56117 6.22755 1.94156 6.02755 2.30215C5.87131 2.61775 5.71123 2.93143 5.54736 3.24313L5.48716 3.36353C3.94559 6.36627 2.44422 9.40921 1.06285 12.4122L1.04265 12.452C0.902657 12.7727 0.742258 13.1129 0.582061 13.4729C0.482063 13.6933 0.382065 13.9335 0.282067 14.1937C0.0216724 14.9343 -0.0585298 15.6351 0.0418682 16.3561C0.262064 17.8576 1.26284 19.1184 2.64442 19.6794C3.16501 19.8998 3.7056 19.9998 4.26598 19.9998C4.42618 19.9998 4.62618 19.9798 4.78658 19.9596C5.44737 19.8796 6.12795 19.6596 6.78874 19.2792C7.60952 18.8186 8.3903 18.1582 9.27108 17.1973C10.1519 18.1582 10.9527 18.8186 11.7534 19.2792C12.4144 19.6596 13.0948 19.8796 13.7554 19.9596C13.9156 19.98 14.116 19.9998 14.2762 19.9998C14.8368 19.9998 15.3972 19.8998 15.8976 19.6794C17.2991 19.1184 18.2799 17.8376 18.5003 16.3561C18.6593 15.6555 18.5793 14.9551 18.3191 14.2141ZM9.29049 15.2551C8.20931 13.8937 7.50852 12.6125 7.26852 11.5318C7.16853 11.0712 7.14833 10.6708 7.20853 10.3104C7.24833 9.99 7.36872 9.7096 7.52892 9.46941C7.90931 8.92922 8.5499 8.58862 9.29069 8.58862C10.0317 8.58862 10.6923 8.90902 11.0527 9.46941C11.2128 9.7096 11.3328 9.9902 11.3732 10.3104C11.433 10.671 11.413 11.0912 11.313 11.5318C11.0721 12.5925 10.3713 13.8739 9.29049 15.2551ZM17.2779 16.1961C17.1379 17.2371 16.4371 18.1382 15.4564 18.5386C14.976 18.7386 14.4552 18.7988 13.935 18.7386C13.4346 18.6784 12.9338 18.5182 12.4136 18.2182C11.6928 17.8174 10.9723 17.1973 10.1313 16.2761C11.4524 14.6547 12.2532 13.1729 12.5536 11.852C12.6938 11.2312 12.714 10.6708 12.6536 10.15C12.5738 9.6496 12.3934 9.18901 12.1132 8.78862C11.4922 7.88744 10.4511 7.36725 9.29029 7.36725C8.12951 7.36725 7.08833 7.90784 6.46774 8.78862C6.18755 9.18901 6.00715 9.6496 5.92715 10.15C5.84715 10.6708 5.86695 11.2512 6.02715 11.852C6.32734 13.1729 7.14813 14.6745 8.44931 16.2961C7.62852 17.2171 6.88773 17.8378 6.16695 18.2382C5.64636 18.5386 5.14617 18.6988 4.64578 18.7586C4.10539 18.8188 3.5846 18.7386 3.12421 18.5586C2.14343 18.1582 1.44264 17.2571 1.30265 16.2161C1.24265 15.7157 1.28245 15.2153 1.48284 14.6547C1.54264 14.4543 1.64304 14.2543 1.74304 14.0141C1.88323 13.6937 2.04303 13.3531 2.20343 13.0129L2.22363 12.9731C3.6048 9.99 5.08617 6.94706 6.62774 3.98432L6.68774 3.86392C6.84813 3.56393 7.00833 3.24353 7.16833 2.94314C7.32853 2.62274 7.50852 2.32235 7.72892 2.06195C8.14931 1.58196 8.70969 1.32137 9.33048 1.32137C9.95127 1.32137 10.5117 1.58196 10.9321 2.06195C11.1525 2.32295 11.3324 2.62334 11.4926 2.94314C11.653 3.24353 11.8132 3.56393 11.973 3.86392L12.0332 3.98432C13.5513 6.95937 15.013 9.96285 16.4175 12.9931V13.0131C16.5779 13.3339 16.7179 13.6939 16.8781 14.0147C16.9781 14.2545 17.0783 14.4545 17.1383 14.6549C17.2981 15.1749 17.3581 15.6757 17.2779 16.1961Z" fill="#FF5A5F"/>
</g>
<defs>
<clipPath id="clip0_614_335">
<rect width="64.0839" height="20" fill="white"/>
</clipPath>
</defs>
</svg>
