<svg width="102" height="20" viewBox="0 0 102 20" fill="none" xmlns="http://www.w3.org/2000/svg">
<g clip-path="url(#clip0_614_228)">
<path fill-rule="evenodd" clip-rule="evenodd" d="M98.4641 15.2125C98.5252 15.9087 99.0821 16.7951 100.047 16.7951H100.612C100.831 16.7951 101.01 16.6157 101.01 16.3967V3.97972H101.007C100.996 3.77054 100.823 3.603 100.612 3.603H98.8622C98.6507 3.603 98.4779 3.77054 98.4663 3.97972H98.4641V4.98867C97.3922 3.66743 95.7022 3.11903 94.0076 3.11903C90.1554 3.11903 87.0327 6.24412 87.0327 10.0993C87.0327 13.9548 90.1554 17.0799 94.0076 17.0799V17.0803C95.7022 17.0803 97.549 16.4224 98.4638 15.2109L98.4641 15.2125ZM94.0144 14.6369C91.5645 14.6369 89.5782 12.6056 89.5782 10.0994C89.5782 7.59356 91.5645 5.5621 94.0144 5.5621C96.4642 5.5621 98.4501 7.59356 98.4501 10.0994C98.4501 12.6056 96.4642 14.6369 94.0144 14.6369ZM84.821 15.6395L84.8202 9.21427H84.8204C84.8204 5.59239 82.5372 3.14902 78.8964 3.14902C77.1584 3.14902 75.7337 4.15478 75.2305 5.01876C75.1217 4.3432 74.7634 3.63309 73.6519 3.63309H73.0855C72.8664 3.63309 72.6874 3.8126 72.6874 4.03165V16.4496H72.6896C72.7011 16.6585 72.8742 16.8263 73.0857 16.8263H74.8352C74.8619 16.8263 74.8882 16.8231 74.9136 16.8181C74.9252 16.8159 74.936 16.8114 74.9472 16.8081C74.9602 16.8041 74.9738 16.8011 74.9861 16.796C75.0017 16.7895 75.0158 16.7809 75.0303 16.7728C75.0374 16.7684 75.0448 16.7653 75.0516 16.7608C75.0691 16.7495 75.0852 16.736 75.1006 16.7221C75.1032 16.7195 75.1062 16.7178 75.1087 16.7155C75.1261 16.6987 75.1419 16.6801 75.1561 16.6609L75.1562 16.6606C75.2 16.6004 75.2266 16.5278 75.2309 16.4496H75.2332V9.11465C75.2332 7.16945 76.809 5.59239 78.753 5.59239C80.6967 5.59239 82.2725 7.16945 82.2725 9.11465L82.2742 15.2457L82.2746 15.2436C82.2746 15.249 82.2755 15.2546 82.2755 15.2605V16.4496H82.2778C82.2893 16.6585 82.4621 16.8263 82.6737 16.8263H84.4233C84.4501 16.8263 84.4763 16.8231 84.5016 16.8181C84.5119 16.8162 84.5215 16.8121 84.5316 16.8092C84.546 16.8051 84.5606 16.8015 84.5745 16.796C84.5887 16.79 84.6017 16.7818 84.6153 16.7742C84.6236 16.7694 84.6322 16.7661 84.6402 16.7608C84.6563 16.7501 84.6711 16.7373 84.6856 16.7247C84.6893 16.7213 84.6935 16.7187 84.697 16.7152C84.7136 16.6992 84.7283 16.682 84.7418 16.6638C84.7428 16.6625 84.7439 16.6614 84.7449 16.66C84.788 16.6004 84.8144 16.5284 84.8189 16.4508C84.8189 16.4502 84.8191 16.4496 84.8191 16.4496H84.8214V15.6397L84.821 15.6395ZM66.601 15.2125C66.6622 15.9087 67.2192 16.7951 68.1841 16.7951H68.7487C68.9676 16.7951 69.1467 16.6157 69.1467 16.3967V3.97972H69.1445C69.1331 3.77054 68.96 3.603 68.7487 3.603H66.9992C66.7877 3.603 66.6149 3.77054 66.6031 3.97972H66.601V4.98867C65.529 3.66743 63.8391 3.11903 62.1444 3.11903C58.2923 3.11903 55.1697 6.24412 55.1697 10.0993C55.1697 13.9548 58.2923 17.0799 62.1444 17.0799V17.0803C63.8391 17.0803 65.6861 16.4224 66.6008 15.2109L66.601 15.2125ZM62.1511 14.6369C59.7014 14.6369 57.7153 12.6056 57.7153 10.0994C57.7153 7.59356 59.7014 5.5621 62.1511 5.5621C64.6011 5.5621 66.5869 7.59356 66.5869 10.0994C66.5869 12.6056 64.6011 14.6369 62.1511 14.6369ZM44.8238 13.4341C45.9916 14.2438 47.2665 14.637 48.4915 14.637C49.6586 14.637 50.8652 14.0316 50.8652 12.9776C50.8652 11.5706 48.2361 11.3517 46.5842 10.7897C44.932 10.2279 43.5091 9.06646 43.5091 7.18557C43.5091 4.30751 46.0715 3.11884 48.4632 3.11884C49.9785 3.11884 51.542 3.61891 52.5557 4.33527C52.9048 4.59999 52.6921 4.90392 52.6921 4.90392L51.7246 6.28695C51.6158 6.44272 51.4257 6.5773 51.1526 6.4087C50.8797 6.24021 49.9222 5.562 48.4632 5.562C47.004 5.562 46.125 6.23639 46.125 7.07229C46.125 8.07467 47.2674 8.38994 48.6055 8.73159C50.9373 9.36063 53.481 10.1167 53.481 12.9776C53.481 15.5134 51.1109 17.0806 48.4915 17.0806C46.5065 17.0806 44.8165 16.5142 43.399 15.4733C43.1038 15.1775 43.31 14.9029 43.31 14.9029L44.2729 13.5269C44.4687 13.2695 44.7158 13.3593 44.8238 13.4341ZM38.0982 15.2125C38.1594 15.9087 38.7164 16.7951 39.6813 16.7951H40.246C40.4648 16.7951 40.6442 16.6157 40.6442 16.3967V3.97972H40.6417C40.6303 3.77054 40.4575 3.603 40.246 3.603H38.4965C38.285 3.603 38.1121 3.77054 38.1003 3.97972H38.0982V4.98867C37.0264 3.66743 35.3364 3.11903 33.6417 3.11903C29.7897 3.11903 26.667 6.24412 26.667 10.0993C26.667 13.9548 29.7897 17.0799 33.6417 17.0799V17.0803C35.3364 17.0803 37.1833 16.4224 38.098 15.2109L38.0982 15.2125ZM33.6486 14.6369C31.1987 14.6369 29.2125 12.6056 29.2125 10.0994C29.2125 7.59356 31.1987 5.5621 33.6486 5.5621C36.0984 5.5621 38.0843 7.59356 38.0843 10.0994C38.0843 12.6056 36.0984 14.6369 33.6486 14.6369Z" fill="#353C4A"/>
<path fill-rule="evenodd" clip-rule="evenodd" d="M16.8886 10.5741C14.2963 10.5741 12.1948 12.6755 12.1948 15.268C12.1948 17.8604 14.2963 19.9618 16.8886 19.9618C19.4809 19.9618 21.5823 17.8604 21.5823 15.268C21.5823 12.6755 19.4809 10.5741 16.8886 10.5741ZM4.69377 10.5745C2.1015 10.5745 0 12.6756 0 15.268C0 17.8604 2.1015 19.9619 4.69377 19.9619C7.28615 19.9619 9.38775 17.8604 9.38775 15.268C9.38775 12.6756 7.28615 10.5745 4.69377 10.5745ZM15.4848 4.70676C15.4848 7.29924 13.3834 9.40094 10.7912 9.40094C8.1988 9.40094 6.0974 7.29924 6.0974 4.70676C6.0974 2.11479 8.1988 0.0130844 10.7912 0.0130844C13.3834 0.0130844 15.4848 2.11479 15.4848 4.70676Z" fill="#F06A6A"/>
</g>
<defs>
<clipPath id="clip0_614_228">
<rect width="101.01" height="20" fill="white"/>
</clipPath>
</defs>
</svg>
