<svg width="70" height="20" viewBox="0 0 70 20" fill="none" xmlns="http://www.w3.org/2000/svg">
<g clip-path="url(#clip0_614_292)">
<path d="M15.0489 3.78814C15.0374 3.68451 14.9453 3.63846 14.8762 3.62694C14.8071 3.61543 13.4254 3.60391 13.4254 3.60391C13.4254 3.60391 12.2625 2.47553 12.1474 2.36039C12.0322 2.24525 11.8135 2.27979 11.7214 2.30282C11.7214 2.30282 11.5026 2.3719 11.1341 2.48705C11.0766 2.29131 10.9845 2.04951 10.8578 1.80771C10.4433 1.01324 9.84456 0.598732 9.10766 0.598732C9.0616 0.598732 9.00403 0.598732 8.95797 0.610247C8.93495 0.587218 8.91192 0.56419 8.88889 0.529648C8.56649 0.184225 8.1635 0.0230272 7.67991 0.0345413C6.73575 0.0575696 5.80311 0.736902 5.03166 1.9574C4.4905 2.80944 4.08751 3.88025 3.97237 4.70927C2.89004 5.04318 2.13011 5.27346 2.1186 5.28497C1.57743 5.45768 1.5544 5.4692 1.48532 5.98733C1.42775 6.3673 0 17.4324 0 17.4324L11.9862 19.5049L17.179 18.2153C17.179 18.2153 15.0604 3.88025 15.0489 3.78814ZM10.5354 2.67127C10.2591 2.75187 9.94819 2.8555 9.60276 2.95912C9.59125 2.48705 9.53368 1.81923 9.31491 1.24352C10.0403 1.38169 10.3857 2.18768 10.5354 2.67127ZM8.981 3.15486C8.34773 3.3506 7.66839 3.55786 6.97755 3.77663C7.17329 3.03972 7.54174 2.30282 7.99079 1.81923C8.1635 1.635 8.39378 1.43926 8.67012 1.32412C8.93495 1.86528 8.981 2.63673 8.981 3.15486ZM7.69142 0.667817C7.91019 0.667817 8.09442 0.713874 8.25561 0.8175C8.0023 0.944156 7.74899 1.1399 7.51871 1.39321C6.91998 2.038 6.45941 3.02821 6.27519 3.99539C5.69948 4.16811 5.14681 4.34082 4.62867 4.50201C4.97409 2.98215 6.24065 0.713874 7.69142 0.667817Z" fill="#95BF47"/>
<path d="M14.8764 3.62694C14.8073 3.61543 13.4256 3.60391 13.4256 3.60391C13.4256 3.60391 12.2627 2.47553 12.1475 2.36039C12.1015 2.31433 12.0439 2.29131 11.9863 2.29131V19.5049L17.1792 18.2153C17.1792 18.2153 15.0606 3.89177 15.0491 3.78814C15.0261 3.68451 14.9455 3.63846 14.8764 3.62694Z" fill="#5E8E3E"/>
<path d="M9.1077 6.29822L8.50897 8.55498C8.50897 8.55498 7.84115 8.2441 7.03516 8.30167C5.86073 8.37076 5.84921 9.10766 5.86073 9.3034C5.92981 10.3166 8.57805 10.5354 8.72774 12.8958C8.84288 14.7611 7.73752 16.0276 6.14858 16.1313C4.23724 16.2464 3.18945 15.1295 3.18945 15.1295L3.59245 13.4139C3.59245 13.4139 4.65174 14.2084 5.49227 14.1624C6.04495 14.1278 6.24069 13.6788 6.21766 13.3564C6.13706 12.0438 3.97241 12.1128 3.83424 9.9597C3.7191 8.14048 4.91657 6.29822 7.5533 6.12551C8.58957 6.03339 9.1077 6.29822 9.1077 6.29822Z" fill="white"/>
<path d="M24.214 11.1111C23.6153 10.7887 23.3044 10.5124 23.3044 10.1324C23.3044 9.64882 23.7304 9.33794 24.4097 9.33794C25.1927 9.33794 25.8835 9.66033 25.8835 9.66033L26.4362 7.97927C26.4362 7.97927 25.9296 7.58779 24.4443 7.58779C22.3717 7.58779 20.9325 8.77374 20.9325 10.4433C20.9325 11.3874 21.6003 12.1128 22.4984 12.631C23.2238 13.0455 23.4771 13.3333 23.4771 13.7709C23.4771 14.2199 23.1202 14.5769 22.4408 14.5769C21.4391 14.5769 20.4949 14.0587 20.4949 14.0587L19.9077 15.7398C19.9077 15.7398 20.7828 16.327 22.2451 16.327C24.3752 16.327 25.9066 15.2792 25.9066 13.3909C25.9181 12.3661 25.1466 11.6408 24.214 11.1111ZM32.7114 7.56476C31.6636 7.56476 30.8346 8.05987 30.2013 8.8198L30.1668 8.80829L31.0764 4.04145H28.7045L26.4017 16.1658H28.7736L29.568 12.0207C29.8789 10.4548 30.6849 9.48762 31.4448 9.48762C31.9745 9.48762 32.1818 9.84456 32.1818 10.3627C32.1818 10.6851 32.1472 11.0881 32.0781 11.4105L31.18 16.1543H33.5519L34.4846 11.2493C34.5882 10.7311 34.6573 10.1094 34.6573 9.70639C34.6573 8.38227 33.9434 7.56476 32.7114 7.56476ZM40.0229 7.56476C37.1674 7.56476 35.279 10.1439 35.279 13.0224C35.279 14.8647 36.4189 16.3385 38.5491 16.3385C41.347 16.3385 43.2468 13.8284 43.2468 10.8808C43.2353 9.18825 42.2336 7.56476 40.0229 7.56476ZM38.8484 14.5193C38.0424 14.5193 37.697 13.8284 37.697 12.9764C37.697 11.6177 38.3994 9.39551 39.6889 9.39551C40.5295 9.39551 40.8058 10.1209 40.8058 10.8233C40.8058 12.2855 40.1035 14.5193 38.8484 14.5193ZM49.3032 7.56476C47.7028 7.56476 46.7932 8.96949 46.7932 8.96949H46.7586L46.8968 7.69142H44.8012C44.6976 8.55498 44.5134 9.85607 44.3176 10.8348L42.6711 19.5164H45.043L45.6993 16.0046H45.7454C45.7454 16.0046 46.229 16.3155 47.1386 16.3155C49.925 16.3155 51.7442 13.46 51.7442 10.5699C51.7557 8.99251 51.0419 7.56476 49.3032 7.56476ZM47.0349 14.5538C46.4132 14.5538 46.0562 14.2084 46.0562 14.2084L46.4477 11.9862C46.7241 10.5124 47.4955 9.52216 48.3245 9.52216C49.0499 9.52216 49.2687 10.19 49.2687 10.8348C49.2687 12.3661 48.3591 14.5538 47.0349 14.5538ZM55.1409 4.1681C54.3809 4.1681 53.7822 4.76684 53.7822 5.5498C53.7822 6.25216 54.2313 6.73575 54.8991 6.73575H54.9336C55.6705 6.73575 56.3153 6.24064 56.3268 5.35406C56.3268 4.66321 55.8663 4.1681 55.1409 4.1681ZM51.8248 16.1658H54.1967L55.8087 7.7605H53.4138L51.8248 16.1658ZM61.8421 7.73748H60.1956L60.2762 7.346C60.4143 6.54001 60.8979 5.81462 61.6809 5.81462C62.1069 5.81462 62.4408 5.92976 62.4408 5.92976L62.9014 4.07599C62.9014 4.07599 62.4869 3.86874 61.6118 3.86874C60.7713 3.86874 59.9307 4.11053 59.286 4.66321C58.48 5.35406 58.1 6.34427 57.9043 7.346L57.8352 7.73748H56.7298L56.3844 9.52216H57.4898L56.2347 16.1658H58.6066L59.8617 9.52216H61.4967L61.8421 7.73748ZM67.5531 7.7605C67.5531 7.7605 66.0678 11.5026 65.3999 13.5406H65.3654C65.3194 12.8843 64.7782 7.7605 64.7782 7.7605H62.2911L63.7189 15.4865C63.7534 15.6592 63.7304 15.7628 63.6728 15.8779C63.3965 16.4076 62.9359 16.9257 62.3833 17.3057C61.9342 17.6281 61.4391 17.8353 61.0361 17.9735L61.6924 19.9885C62.176 19.8849 63.1662 19.4934 64.0183 18.6989C65.1006 17.6857 66.1023 16.1197 67.1271 13.9896L70.0286 7.7605H67.5531Z" fill="#353C4A"/>
</g>
<defs>
<clipPath id="clip0_614_292">
<rect width="70.0058" height="20" fill="white"/>
</clipPath>
</defs>
</svg>
