<svg width="101" height="20" viewBox="0 0 101 20" fill="none" xmlns="http://www.w3.org/2000/svg">
<g clip-path="url(#clip0_614_262)">
<path d="M23.0163 12.3777L21.8592 12.2753C20.951 12.2023 20.5995 11.836 20.5995 11.2206C20.5995 10.4884 21.1561 10.034 22.2108 10.034C22.9579 10.034 23.6169 10.21 24.1302 10.6055L24.8187 9.91694C24.1736 9.38968 23.2511 9.14081 22.226 9.14081C20.6879 9.14081 19.5745 9.93113 19.5745 11.25C19.5745 12.4365 20.3218 13.0663 21.7279 13.1835L22.9144 13.286C23.7492 13.3594 24.1155 13.7108 24.1155 14.3406C24.1155 15.1903 23.3831 15.6148 22.1961 15.6148C21.3024 15.6148 20.5261 15.3805 19.9542 14.7798L19.251 15.4831C20.0421 16.2447 20.9942 16.5231 22.21 16.5231C23.9531 16.5231 25.1397 15.7166 25.1397 14.326C25.1397 12.9779 24.2753 12.4948 23.0155 12.3774L23.0163 12.3777ZM32.0345 9.14048C30.8782 9.14048 30.1498 9.36839 29.5116 10.1765C29.5029 10.1876 30.2036 10.8687 30.2036 10.8687C30.6282 10.2682 31.0969 10.0487 32.0197 10.0487C33.3381 10.0487 33.8655 10.576 33.8655 11.6305V12.3189H31.6981C30.0868 12.3189 29.2081 13.1394 29.2081 14.3995C29.1911 14.9397 29.3856 15.4652 29.75 15.8644C30.2042 16.3332 30.79 16.5235 31.786 16.5235C32.7528 16.5235 33.2802 16.3332 33.8666 15.7471V16.4355H34.9213V11.5427C34.9213 9.97548 33.9697 9.14081 32.0357 9.14081L32.0345 9.14048ZM33.8661 13.8871C33.8661 14.4879 33.7489 14.8981 33.4998 15.1323C33.0458 15.5718 32.5039 15.6161 31.8887 15.6161C30.7461 15.6161 30.2332 15.2205 30.2332 14.3855C30.2332 13.5505 30.7607 13.1113 31.8448 13.1113H33.8661V13.8871ZM39.0515 10.0789C39.7398 10.0789 40.1644 10.2839 40.7066 10.8844C40.7066 10.8844 41.4127 10.1981 41.4069 10.1919C40.6674 9.40081 40.0397 9.14145 39.0521 9.14145C37.2357 9.14145 35.8586 10.3718 35.8586 12.8326C35.8586 15.2934 37.2353 16.524 39.0521 16.524C40.0481 16.524 40.6779 16.2602 41.425 15.4547L40.7073 14.7661C40.1653 15.3668 39.7405 15.5865 39.0521 15.5865C38.3926 15.6128 37.7645 15.3042 37.3823 14.7661C37.0453 14.2974 36.9136 13.7408 36.9136 12.8326C36.9136 11.9244 37.0453 11.3677 37.3823 10.899C37.7644 10.3609 38.3926 10.0523 39.0521 10.0789H39.0515ZM48.0844 9.21855H46.7695L43.5018 12.3992L43.5068 6.00581H42.4518V16.4355H43.5066L43.5016 13.805L44.7808 12.5213L47.1982 16.4355H48.5018L45.5115 11.7903L48.0844 9.21855ZM52.9574 9.04113C51.8768 9.04113 51.1466 9.46226 50.6973 9.93952C50.0374 10.6274 49.869 11.4556 49.869 12.7753C49.869 14.1089 50.0374 14.9366 50.6973 15.6252C51.1466 16.1024 51.8765 16.5237 52.9574 16.5237C54.0384 16.5237 54.7826 16.1024 55.2316 15.6252C55.8915 14.9373 56.06 14.109 56.06 12.7753C56.06 11.4558 55.8915 10.6274 55.2316 9.93952C54.7826 9.46226 54.0381 9.04113 52.9574 9.04113ZM53.8139 14.5582C53.5851 14.7792 53.2752 14.896 52.9574 14.8808C52.6439 14.896 52.3384 14.779 52.1152 14.5582C51.736 14.1792 51.694 13.5335 51.694 12.7753C51.694 12.0171 51.736 11.3856 52.1152 11.0066C52.3383 10.7858 52.6439 10.6688 52.9574 10.684C53.2752 10.6688 53.5851 10.7855 53.8139 11.0066C54.1927 11.3856 54.235 12.0173 54.235 12.7753C54.235 13.5334 54.1927 14.1785 53.8139 14.5582ZM60.9195 9.125L59.4457 13.6452L57.9576 9.12468H56.034L58.7297 16.4387H60.1615L62.8426 9.12468L60.9195 9.125ZM65.9474 9.04081C64.0524 9.04081 62.7608 10.3884 62.7608 12.775C62.7608 15.7373 64.4174 16.5234 66.144 16.5234C67.4637 16.5234 68.1798 16.1161 68.9237 15.3719L67.8148 14.2913C67.3515 14.7547 66.9582 14.9792 66.1581 14.9792C65.1332 14.9792 64.5577 14.2913 64.5577 13.3502H69.1342V12.5365C69.1342 10.5289 67.9831 9.04081 65.9474 9.04081ZM64.5577 12.1011C64.5604 11.8304 64.6178 11.563 64.7263 11.315C64.9563 10.8508 65.4296 10.5571 65.9477 10.5571C66.4657 10.5571 66.939 10.8508 67.169 11.315C67.2772 11.5631 67.3345 11.8305 67.3374 12.1011H64.5577ZM71.8263 9.82693V9.125H70.0432V16.439H71.8682V12.0311C71.8682 11.1045 72.486 10.6832 73.0476 10.6832C73.4177 10.6704 73.773 10.8291 74.0105 11.1132L75.3921 9.72871C74.8866 9.22323 74.3813 9.04081 73.6653 9.04081C72.9691 9.03256 72.3017 9.31793 71.8266 9.82693H71.8263ZM75.9584 8.36258V16.4316H77.7832V10.6648H79.131V9.27516H77.7832V8.475C77.7832 8.05387 77.994 7.81516 78.4284 7.81516H79.1303V6.27113H78.0916C76.6032 6.27113 75.9577 7.32387 75.9577 8.36258H75.9584ZM86.6439 9.04C85.5632 9.04 84.8329 9.46113 84.3837 9.93839C83.724 10.6263 83.5555 11.4545 83.5555 12.7742C83.5555 14.1077 83.724 14.9355 84.3837 15.624C84.8329 16.1013 85.5629 16.5226 86.6439 16.5226C87.7248 16.5226 88.469 16.1013 88.9181 15.624C89.5778 14.9361 89.7463 14.1079 89.7463 12.7742C89.7463 11.4547 89.5778 10.6263 88.9181 9.93839C88.4689 9.46113 87.7245 9.04 86.6439 9.04ZM87.5003 14.5571C87.2715 14.7781 86.9616 14.8948 86.6439 14.8797C86.3303 14.8948 86.0248 14.7778 85.8016 14.5571C85.4226 14.1781 85.3805 13.5324 85.3805 12.7742C85.3805 12.016 85.4226 11.3845 85.8016 11.0055C86.0248 10.7847 86.3303 10.6677 86.6439 10.6829C86.9616 10.6677 87.2716 10.7844 87.5003 11.0055C87.8792 11.3845 87.9215 12.0161 87.9215 12.7742C87.9215 13.5323 87.8792 14.1774 87.5003 14.5571ZM98.3684 9.12419L97.1894 13.6452L95.6873 9.125H94.3539L92.8655 13.6452L91.6865 9.12468H89.7492L91.9953 16.4387H93.4974L95.0276 11.8484L96.5577 16.4387H98.0598L100.292 9.12468L98.3684 9.12419ZM81.8227 14.235V6.27113H79.9984V14.3473C79.9984 15.3861 80.6303 16.439 82.1323 16.439H83.171V14.8947H82.4692C82.006 14.8947 81.824 14.6702 81.824 14.235H81.8227ZM28.0647 10.3623L29.0398 9.3871H27.0431V7.01613H25.9884V14.5019C25.9884 15.5711 26.6036 16.4355 27.834 16.4355H28.5808V15.5273H28.0244C27.3507 15.5273 27.0431 15.1316 27.0431 14.4726V10.3623H28.0647Z" fill="#1E1B1D"/>
<path fill-rule="evenodd" clip-rule="evenodd" d="M14.1935 12.9032H15.9677V20H0V12.9032H1.77419V18.2258H14.1935V12.9032Z" fill="#BBBBBB"/>
<path d="M3.70768 12.3758L12.4214 14.2073L12.7877 12.4653L4.07397 10.6331L3.70768 12.3758ZM4.86074 8.20339L12.9327 11.9627L13.6846 10.3484L5.61252 6.58903L4.86074 8.20339ZM7.09429 4.24323L13.9375 9.94177L15.0772 8.57323L8.23397 2.87484L7.09429 4.24323ZM11.5115 0.0309677L10.0825 1.09387L15.3967 8.23903L16.8257 7.17629L11.5115 0.0309677ZM3.54834 16.4516H12.4193V14.6774H3.54834V16.4516Z" fill="#F58025"/>
</g>
<defs>
<clipPath id="clip0_614_262">
<rect width="100.323" height="20" fill="white"/>
</clipPath>
</defs>
</svg>
