<svg width="103" height="20" viewBox="0 0 103 20" fill="none" xmlns="http://www.w3.org/2000/svg">
<g clip-path="url(#clip0_614_241)">
<path d="M26.7959 11.8161C26.9019 12.8074 27.8037 14.5069 30.4207 14.5069C32.7016 14.5069 33.798 13.0553 33.798 11.6391C33.798 10.3644 32.9315 9.31994 31.2164 8.96585L29.9786 8.70033C29.5012 8.61182 29.183 8.34628 29.183 7.92139C29.183 7.4257 29.678 7.05396 30.297 7.05396C31.287 7.05396 31.6584 7.70895 31.7292 8.22237L33.6918 7.77978C33.5858 6.84152 32.7547 5.26596 30.2793 5.26596C28.4049 5.26596 27.0258 6.55828 27.0258 8.11612C27.0258 9.33762 27.786 10.3467 29.4658 10.7185L30.6152 10.984C31.287 11.1256 31.5524 11.4443 31.5524 11.8338C31.5524 12.2941 31.181 12.7012 30.403 12.7012C29.3775 12.7012 28.8646 12.0639 28.8116 11.3735L26.7959 11.8161Z" fill="#353C4A"/>
<path d="M41.3134 14.2414H43.559C43.5236 13.9404 43.4705 13.3385 43.4705 12.6658V5.53149H41.1187V10.5945C41.1187 11.6036 40.5176 12.3118 39.4744 12.3118C38.3782 12.3118 37.8829 11.5328 37.8829 10.5592V5.53149H35.5312V11.0372C35.5312 12.9314 36.7336 14.4715 38.8378 14.4715C39.7571 14.4715 40.7654 14.1175 41.2428 13.3031C41.2428 13.6572 41.278 14.0644 41.3134 14.2414Z" fill="#353C4A"/>
<path d="M48.332 17.605V13.3917C48.7562 13.9759 49.6405 14.4539 50.8429 14.4539C53.3006 14.4539 54.9449 12.5065 54.9449 9.86874C54.9449 7.28412 53.4775 5.33678 50.9313 5.33678C49.6229 5.33678 48.6504 5.92095 48.2614 6.5937V5.5315H45.9805V17.605H48.332ZM52.6286 9.88646C52.6286 11.4444 51.6739 12.3472 50.4714 12.3472C49.2693 12.3472 48.2968 11.4266 48.2968 9.88646C48.2968 8.3463 49.2693 7.44343 50.4714 7.44343C51.6739 7.44343 52.6286 8.3463 52.6286 9.88646Z" fill="#353C4A"/>
<path d="M56.2769 11.8692C56.2769 13.2323 57.4084 14.4893 59.2652 14.4893C60.5556 14.4893 61.3868 13.8873 61.8287 13.1969C61.8287 13.5333 61.8641 14.0112 61.9172 14.2414H64.0744C64.0213 13.9404 63.9685 13.3208 63.9685 12.8606V8.5764C63.9685 6.8238 62.9429 5.26596 60.1846 5.26596C57.8505 5.26596 56.5949 6.77069 56.4537 8.13384L58.54 8.5764C58.6108 7.81518 59.1767 7.16017 60.202 7.16017C61.1924 7.16017 61.6698 7.67355 61.6698 8.29316C61.6698 8.59412 61.5108 8.84198 61.0156 8.91277L58.8761 9.23143C57.4262 9.44387 56.2769 10.3113 56.2769 11.8692ZM59.76 12.7366C58.9999 12.7366 58.6284 12.241 58.6284 11.7276C58.6284 11.0548 59.1057 10.7185 59.7071 10.63L61.6698 10.329V10.7185C61.6698 12.2587 60.7503 12.7366 59.76 12.7366Z" fill="#353C4A"/>
<path d="M68.6199 14.2414V13.1792C69.0794 13.9228 69.9989 14.4539 71.2013 14.4539C73.6771 14.4539 75.3038 12.4888 75.3038 9.85106C75.3038 7.26641 73.836 5.30138 71.2898 5.30138C69.9989 5.30138 69.0442 5.86788 68.6552 6.48745V1.4244H66.3389V14.2414H68.6199ZM72.9518 9.86874C72.9518 11.462 71.9971 12.3472 70.7946 12.3472C69.61 12.3472 68.6199 11.4444 68.6199 9.86874C68.6199 8.27547 69.61 7.40804 70.7946 7.40804C71.9971 7.40804 72.9518 8.27547 72.9518 9.86874Z" fill="#353C4A"/>
<path d="M76.6353 11.8692C76.6353 13.2323 77.7668 14.4893 79.6234 14.4893C80.914 14.4893 81.7453 13.8873 82.1871 13.1969C82.1871 13.5333 82.2227 14.0112 82.2756 14.2414H84.4328C84.38 13.9404 84.3269 13.3208 84.3269 12.8606V8.5764C84.3269 6.8238 83.3013 5.26596 80.5429 5.26596C78.2089 5.26596 76.9535 6.77069 76.8121 8.13384L78.8983 8.5764C78.9692 7.81518 79.5351 7.16017 80.5604 7.16017C81.5508 7.16017 82.0282 7.67355 82.0282 8.29316C82.0282 8.59412 81.8691 8.84198 81.3738 8.91277L79.2345 9.23143C77.7846 9.44387 76.6353 10.3113 76.6353 11.8692ZM80.1186 12.7366C79.3583 12.7366 78.9868 12.241 78.9868 11.7276C78.9868 11.0548 79.4641 10.7185 80.0655 10.63L82.0282 10.329V10.7185C82.0282 12.2587 81.1087 12.7366 80.1186 12.7366Z" fill="#353C4A"/>
<path d="M85.9551 11.8161C86.0609 12.8074 86.9629 14.5069 89.5797 14.5069C91.8607 14.5069 92.9569 13.0553 92.9569 11.6391C92.9569 10.3644 92.0907 9.31994 90.3754 8.96585L89.1376 8.70033C88.6602 8.61182 88.3422 8.34628 88.3422 7.92139C88.3422 7.4257 88.837 7.05396 89.456 7.05396C90.4464 7.05396 90.8176 7.70895 90.8885 8.22237L92.851 7.77978C92.7448 6.84152 91.9138 5.26596 89.4384 5.26596C87.5639 5.26596 86.185 6.55828 86.185 8.11612C86.185 9.33762 86.945 10.3467 88.625 10.7185L89.7744 10.984C90.4464 11.1256 90.7115 11.4443 90.7115 11.8338C90.7115 12.2941 90.3402 12.7012 89.5622 12.7012C88.5365 12.7012 88.0239 12.0639 87.9708 11.3735L85.9551 11.8161Z" fill="#353C4A"/>
<path d="M96.5286 8.89506C96.5817 8.09844 97.2537 7.17785 98.4737 7.17785C99.8174 7.17785 100.383 8.02762 100.419 8.89506H96.5286ZM100.649 11.1611C100.366 11.94 99.7645 12.4888 98.6682 12.4888C97.5011 12.4888 96.5286 11.6567 96.4758 10.5061H102.7C102.7 10.4706 102.735 10.1166 102.735 9.78021C102.735 6.98313 101.126 5.26596 98.4383 5.26596C96.2105 5.26596 94.1592 7.07164 94.1592 9.85104C94.1592 12.7897 96.2633 14.5069 98.6505 14.5069C100.79 14.5069 102.169 13.25 102.611 11.7453L100.649 11.1611Z" fill="#353C4A"/>
<path d="M11.2755 19.5193C10.7694 20.1566 9.74325 19.8074 9.73105 18.9936L9.55273 7.09074H17.5562C19.0059 7.09074 19.8144 8.7651 18.9129 9.90043L11.2755 19.5193Z" fill="url(#paint0_linear_614_241)"/>
<path d="M11.2755 19.5193C10.7694 20.1566 9.74325 19.8074 9.73105 18.9936L9.55273 7.09074H17.5562C19.0059 7.09074 19.8144 8.7651 18.9129 9.90043L11.2755 19.5193Z" fill="url(#paint1_linear_614_241)" fill-opacity="0.2"/>
<path d="M8.02074 0.366553C8.52684 -0.270863 9.55304 0.0783952 9.56523 0.892212L9.64338 12.7951H1.74005C0.290363 12.7951 -0.518156 11.1207 0.383304 9.9854L8.02074 0.366553Z" fill="#3ECF8E"/>
</g>
<defs>
<linearGradient id="paint0_linear_614_241" x1="9.55273" y1="9.72991" x2="16.666" y2="12.7132" gradientUnits="userSpaceOnUse">
<stop stop-color="#249361"/>
<stop offset="1" stop-color="#3ECF8E"/>
</linearGradient>
<linearGradient id="paint1_linear_614_241" x1="6.39911" y1="5.41204" x2="9.64311" y2="11.5187" gradientUnits="userSpaceOnUse">
<stop/>
<stop offset="1" stop-opacity="0"/>
</linearGradient>
<clipPath id="clip0_614_241">
<rect width="102.832" height="20" fill="white"/>
</clipPath>
</defs>
</svg>
