<svg width="81" height="20" viewBox="0 0 81 20" fill="none" xmlns="http://www.w3.org/2000/svg">
<g clip-path="url(#clip0_614_267)">
<path d="M9.10906 8.73394C10.4503 7.77158 10.653 3.33003 11.0732 1.62418C11.4935 -0.0816491 13.2317 0.00486895 13.2317 0.00486895C13.2317 0.00486895 12.7805 0.790183 12.9645 1.37622C13.1486 1.96226 14.4095 2.4861 14.4095 2.4861L14.1375 3.20305C14.1375 3.20305 13.5696 3.13041 13.2317 3.80636C12.3491 5.57195 13.8872 10.7272 13.8872 10.7272C13.8872 10.7272 11.4179 14.233 11.4179 16.8726C11.4179 18.564 12.2184 19.9815 12.2184 19.9815H11.095C11.095 19.9815 9.44709 18.0203 9.10906 17.0402C8.7711 16.06 8.90622 15.0799 8.90622 15.0799C8.90622 15.0799 7.11492 14.9785 5.52648 15.0799C3.93805 15.1813 2.87872 16.5468 2.68753 17.3106C2.49635 18.0743 2.41715 19.9815 2.41715 19.9815H1.52889C0.988244 18.3131 0.558859 17.7151 0.791795 16.8726C1.43702 14.5391 1.31028 13.2157 1.16089 12.6261C1.0115 12.0367 0 11.5221 0 11.5221C0.495485 10.5127 1.29254 10.0209 3.17681 9.97701C5.35237 9.92646 7.76787 9.69622 9.10906 8.73394Z" fill="#EC4815"/>
<path d="M3.47363 16.7749C3.47363 16.7749 3.70317 18.8991 4.92259 19.9815H5.96761C4.92259 18.7976 4.80864 15.7118 4.80864 15.7118C4.27711 15.8849 3.54123 16.5045 3.47363 16.7749Z" fill="#EC4815"/>
<path d="M22.8351 9.76378V12.0945H20.5989V15.4016C20.5989 16.1417 20.8666 16.4252 21.8272 16.4252C22.158 16.4252 22.5674 16.3937 22.9611 16.3622V18.6614C22.5359 18.7559 21.843 18.8661 20.9768 18.8661C18.2367 18.8661 17.7328 17.2913 17.7328 16.0787V12.0945H16.3154V9.76378H17.7328V8.3622L20.4414 7.11811H20.5989V9.76378H22.8351Z" fill="#EC4815"/>
<path d="M25.2424 6.3937H28.329V8.69291H25.2424V6.3937ZM23.8408 12.0945V9.76378H28.3133V18.5827H25.4471V12.0945H23.8408Z" fill="#EC4815"/>
<path d="M33.073 10.9291H33.3565C33.64 10.0472 34.2541 9.44882 35.9864 9.44882C37.7974 9.44882 39.1675 10.3307 39.1675 12.4724V18.5827H36.3014V13.3228C36.3014 12.3622 35.7659 11.9213 34.8841 11.9213C33.8919 11.9213 33.3408 12.4095 33.3408 13.6063V18.5827H30.4746V9.76378H33.073V10.9291Z" fill="#EC4815"/>
<path d="M46.6622 17.2441H46.5047C46.0481 18.0945 44.9614 18.8032 43.6229 18.8032C41.6544 18.8032 40.6465 17.8268 40.6465 16.2992C40.6465 14.7874 41.5441 13.9055 43.2134 13.6378L45.7016 13.2441C46.2528 13.1496 46.3945 12.8504 46.3945 12.5827V12.4095C46.3945 12.0158 46.111 11.5276 45.1662 11.5276C44.363 11.5276 43.8906 11.8898 43.8433 12.5039H41.1032C41.2134 10.7244 42.426 9.44882 45.0402 9.44882C47.7803 9.44882 49.1347 10.5512 49.1347 12.315V16.2835H50.1268V18.5827H46.6622V17.2441ZM46.3945 15.1496V14.4095H46.237C46.0796 14.5827 45.8591 14.7087 45.5126 14.7874L44.3473 15.0709C43.8276 15.1969 43.5756 15.4961 43.5756 15.9843C43.5756 16.5669 43.9536 16.8661 44.7095 16.8661C45.8276 16.8661 46.3945 16.0945 46.3945 15.1496Z" fill="#EC4815"/>
<path d="M57.193 15.748H58.8465C58.5631 17.937 57.3662 18.8976 55.193 18.8976C52.4686 18.8976 51.2402 17.2913 51.2402 14.1732C51.2402 11.4803 52.1851 9.44882 55.193 9.44882C57.7127 9.44882 58.5473 10.8032 58.7678 12.5984H57.0985C56.941 11.4488 56.3898 10.7559 55.193 10.7559C53.6182 10.7559 52.8623 11.7953 52.8623 14.1732C52.8623 16.378 53.4922 17.5591 55.193 17.5591C56.3741 17.5591 57.0198 16.8976 57.193 15.748Z" fill="#EC4815"/>
<path d="M66.6286 10.9921H66.7861C67.0696 10.0787 67.7467 9.44882 68.8491 9.44882C70.3137 9.44882 70.9121 10.4252 70.9121 12.4724V18.5827H69.3373V12.7244C69.3373 11.6535 69.1168 10.9291 68.1719 10.9291C67.2586 10.9291 66.7546 11.7165 66.7546 13.1811V18.5827H65.2113V12.7244C65.2113 11.6693 64.9593 10.9291 64.0617 10.9291C62.9751 10.9291 62.6129 11.7953 62.6129 13.3228V18.5827H61.0381V9.76378H62.5184V10.9921H62.7074C63.0381 10.0158 63.605 9.44882 64.7231 9.44882C65.7782 9.44882 66.3609 9.98426 66.6286 10.9921Z" fill="#EC4815"/>
<path d="M80.1733 12.2047H78.4725C78.3623 11.2913 77.8898 10.6772 76.6615 10.6772C75.7166 10.6772 74.882 11.0709 74.882 11.9528C74.882 12.5512 75.1812 12.9606 76.0473 13.1654L77.8268 13.5748C79.4489 13.937 80.315 14.8032 80.315 16.1575C80.315 17.7008 79.2914 18.8976 76.819 18.8976C74.63 18.8976 73.3071 18.0787 72.9922 16.1417H74.8032C75.0552 17.2598 75.7166 17.6693 76.8505 17.6693C77.7953 17.6693 78.6772 17.3228 78.6772 16.315C78.6772 15.7165 78.2993 15.2598 77.3229 15.0236L75.2442 14.5354C74.0473 14.252 73.2757 13.4803 73.2757 12.126C73.2757 10.5512 74.4725 9.44882 76.693 9.44882C79.2127 9.44882 80.0316 10.8504 80.1733 12.2047Z" fill="#EC4815"/>
</g>
<defs>
<clipPath id="clip0_614_267">
<rect width="80.315" height="20" fill="white"/>
</clipPath>
</defs>
</svg>
