<svg width="88" height="20" viewBox="0 0 88 20" fill="none" xmlns="http://www.w3.org/2000/svg">
<g clip-path="url(#clip0_614_253)">
<path d="M11.8619 20C11.6044 20 9.72082 18.4941 9.35612 18.0647C9.06906 18.5035 8.59847 19.0012 8.59847 19.0012C7.29847 18.3459 5.63729 16.6412 5.32435 16.0447C5.01612 15.4565 3.89729 8.68236 3.86671 6.71531C3.82671 5.60825 4.55494 3.36354 11.8619 3.36354C19.1691 3.36354 19.8962 5.60825 19.8574 6.71531C19.8279 8.68236 18.709 15.4565 18.3996 16.0447C18.0866 16.6412 16.4255 18.3459 15.1255 19.0012C15.1255 19.0012 14.6549 18.5035 14.3678 18.0647C14.0031 18.4941 12.1196 20 11.8619 20Z" fill="#1EBCA1"/>
<path d="M11.8621 15.6376C9.42334 15.6376 7.86687 14.3494 7.86687 14.3494L8.09158 11.2118L5.53275 10.9835L5.07275 7.27177H18.6527L18.1927 10.9835L15.6339 11.2118L15.8586 14.3494C15.8586 14.3494 14.3021 15.6376 11.8633 15.6376H11.8621Z" fill="#183134"/>
<path d="M14.389 8.91647L23.6266 5.71882C23.0772 2.43176 20.196 0 20.196 0V3.62118L18.4855 4.06235L17.4137 2.77176L16.496 4.57647L11.8631 5.77176L7.23011 4.57647L6.31246 2.77176L5.2407 4.06235L3.53011 3.62118V0C3.53011 0 0.646579 2.43176 0.097168 5.71882L9.33481 8.91647L9.0054 13.3153C9.79364 13.5153 10.623 13.7141 11.8619 13.7141C13.1008 13.7141 13.929 13.5153 14.7172 13.3153L14.3878 8.91647H14.389Z" fill="#4FF8D2"/>
<path d="M35.195 6.26352V16.8024H31.9056V6.26352L28.2515 5.8141V3.19646H38.8303V5.8141L35.195 6.26352Z" fill="#4FF7D1"/>
<path d="M39.8737 11.3765V3.19646H43.1631V11.3765C43.1631 12.9106 43.8926 13.9718 45.5079 13.9718C47.1231 13.9718 47.8126 12.8906 47.8126 11.3565V3.19646H51.102V11.3565C51.102 14.64 49.2114 17.0588 45.4679 17.0588C41.7243 17.0588 39.8726 14.7776 39.8726 11.3765H39.8737Z" fill="#4FF7D1"/>
<path d="M59.9667 10.5894L63.0795 16.8024H59.5538L56.8749 11.2176H55.9879V16.8024H52.7173V3.19646H57.4055C60.262 3.19646 61.6996 4.67175 61.6996 7.24705C61.6996 8.76116 61.0691 9.92116 59.9655 10.5894H59.9667ZM55.9879 6.02822V8.54469H57.1302C57.8785 8.54469 58.3114 8.03293 58.3114 7.26705C58.3114 6.50116 57.8585 6.02822 57.1302 6.02822H55.9879Z" fill="#4FF7D1"/>
<path d="M67.5316 8.09294L69.2458 8.76118C71.0188 9.48824 72.0635 10.6682 72.0635 12.6941C72.0635 15.4471 70.1128 17.0588 67.3752 17.0588C63.474 17.0588 62.7658 14.5224 62.8834 12.5365H65.9965C65.9576 13.4012 66.2916 14.2471 67.3752 14.2471C68.1234 14.2471 68.6752 13.8341 68.6752 13.0471C68.6752 12.26 68.1234 11.9071 67.2375 11.5729C66.5481 11.2976 65.8587 11.0424 65.1105 10.6682C63.7316 9.96 63.0022 8.62353 63.0022 6.97177C63.0022 4.59294 64.7353 2.94118 67.3953 2.94118C70.607 2.94118 71.7694 4.76941 71.6306 7.18824H68.5975C68.6175 6.34235 68.1834 5.75294 67.4153 5.75294C66.6471 5.75294 66.2918 6.20471 66.2918 6.7753C66.2918 7.34588 66.6071 7.73882 67.5329 8.09294H67.5316Z" fill="#4FF7D1"/>
<path d="M79.8441 2.94118C84.297 2.94118 87.0748 5.98941 87.0748 9.96118C87.0748 13.9329 84.316 17.0588 79.9431 17.0588C75.5701 17.0588 72.7725 14.0118 72.7725 10.02C72.7725 6.02824 75.6488 2.94118 79.8441 2.94118ZM79.9231 13.9918C82.3266 13.9918 83.6266 12.2224 83.6266 10C83.6266 7.77765 82.2476 6.00824 79.9029 6.00824C77.5582 6.00824 76.2194 7.77765 76.2194 10C76.2194 12.2224 77.6572 13.9918 79.9231 13.9918Z" fill="#4FF7D1"/>
</g>
<defs>
<clipPath id="clip0_614_253">
<rect width="87.1765" height="20" fill="white"/>
</clipPath>
</defs>
</svg>
