<svg width="106" height="20" viewBox="0 0 106 20" fill="none" xmlns="http://www.w3.org/2000/svg">
<g clip-path="url(#clip0_614_282)">
<path d="M9.38505 13.0393H24.157V19.972H0V13.0393H6.79065L16.1402 8.02991H0V1.0972H24.157V8.02991L9.38505 13.0393Z" fill="#353C4A"/>
<path d="M16.0598 1.0972H0V8.02991H16.0598V1.0972Z" fill="#6300FF"/>
<path d="M24.1553 13.0393H9.45996V19.972H24.1553V13.0393Z" fill="#FF4400"/>
<path d="M31.4297 18.0785V15.3776L36.3381 9.74206C37.1437 8.82056 37.74 8.16822 38.1269 7.78131C37.7231 7.80561 37.1942 7.82243 36.5362 7.82991L31.9119 7.85421V4.98131H42.74V7.43551L37.7325 13.2075L35.9699 15.1196C36.9325 15.0617 37.5269 15.0336 37.7587 15.0336H43.1231V18.0804H31.4334L31.4297 18.0785Z" fill="#353C4A"/>
<path d="M51.5216 13.9103L54.9739 14.4897C54.529 15.7551 53.83 16.7196 52.8711 17.3813C51.9141 18.043 50.7141 18.3738 49.2767 18.3738C47.0001 18.3738 45.3141 17.6299 44.2206 16.1421C43.3571 14.9495 42.9253 13.4449 42.9253 11.628C42.9253 9.45794 43.4916 7.75701 44.6262 6.52897C45.7608 5.30094 47.1945 4.68598 48.9309 4.68598C50.8786 4.68598 52.4169 5.32897 53.544 6.61682C54.6711 7.9028 55.2094 9.87477 55.1589 12.5308H46.4767C46.501 13.5589 46.7814 14.3589 47.3159 14.929C47.8505 15.5009 48.5159 15.7869 49.3141 15.7869C49.8561 15.7869 50.3122 15.6393 50.6823 15.3421C51.0524 15.0467 51.3309 14.5701 51.5216 13.9122V13.9103ZM51.7197 10.4075C51.6954 9.40374 51.4356 8.64112 50.9421 8.11963C50.4487 7.59813 49.8487 7.33645 49.1421 7.33645C48.3851 7.33645 47.7608 7.61122 47.2674 8.16262C46.7739 8.71402 46.5309 9.46168 46.5402 10.4075H51.7197Z" fill="#353C4A"/>
<path d="M59.0579 8.97757L55.914 8.40935C56.2672 7.14393 56.8766 6.20561 57.7383 5.59813C58.6018 4.99065 59.8841 4.68598 61.585 4.68598C63.1308 4.68598 64.2822 4.86916 65.0373 5.23551C65.7943 5.60187 66.3252 6.06542 66.6336 6.62991C66.942 7.19252 67.0953 8.22617 67.0953 9.73084L67.0579 13.7757C67.0579 14.9271 67.114 15.7757 67.2243 16.3215C67.3345 16.8692 67.542 17.4542 67.8467 18.0785H64.4186C64.3289 17.8486 64.2168 17.5065 64.0859 17.0542C64.028 16.8486 63.9869 16.714 63.9626 16.6467C63.37 17.2224 62.7383 17.6542 62.0635 17.9421C61.3887 18.2299 60.6691 18.3738 59.9046 18.3738C58.557 18.3738 57.4934 18.0075 56.7177 17.2766C55.9401 16.5458 55.5532 15.6206 55.5532 14.5028C55.5532 13.7626 55.7308 13.1028 56.0841 12.5234C56.4373 11.9439 56.9327 11.4991 57.57 11.1925C58.2074 10.8841 59.1252 10.615 60.3271 10.385C61.9457 10.0804 63.0691 9.79813 63.6934 9.53458V9.18879C63.6934 8.52337 63.5289 8.0486 63.2 7.76449C62.871 7.48037 62.2504 7.33832 61.3383 7.33832C60.7214 7.33832 60.2411 7.45981 59.8953 7.7028C59.5495 7.94579 59.271 8.37009 59.056 8.97944L59.0579 8.97757ZM63.6953 11.7888C63.2504 11.9364 62.5476 12.114 61.5869 12.3196C60.6261 12.5252 59.9962 12.7271 59.7009 12.9234C59.2486 13.243 59.0224 13.6505 59.0224 14.1439C59.0224 14.6374 59.2037 15.0486 59.5644 15.4019C59.9271 15.7551 60.3869 15.9327 60.9457 15.9327C61.57 15.9327 62.1663 15.7271 62.7345 15.3159C63.1532 15.0037 63.4299 14.6206 63.5607 14.1682C63.6504 13.8729 63.6971 13.3103 63.6971 12.4785V11.7869L63.6953 11.7888Z" fill="#353C4A"/>
<path d="M68.8506 18.0785V0H72.316V6.51028C73.3852 5.29346 74.6506 4.68598 76.1141 4.68598C77.7085 4.68598 79.0282 5.26355 80.073 6.41869C81.1179 7.57383 81.6394 9.23178 81.6394 11.3944C81.6394 13.557 81.1067 15.3533 80.0431 16.5607C78.9777 17.7682 77.6861 18.3738 76.1646 18.3738C75.4169 18.3738 74.6786 18.1869 73.9515 17.8131C73.2244 17.4393 72.5964 16.886 72.0711 16.1551V18.0785H68.8525H68.8506ZM72.2917 11.2467C72.2917 12.6037 72.5048 13.6056 72.9328 14.2561C73.5328 15.1776 74.331 15.6374 75.3253 15.6374C76.0898 15.6374 76.7422 15.3103 77.2805 14.6561C77.8188 14.0019 78.088 12.972 78.088 11.5664C78.088 10.071 77.8169 8.99065 77.2749 8.32897C76.7328 7.66729 76.0375 7.33645 75.1908 7.33645C74.344 7.33645 73.6693 7.65981 73.1197 8.30467C72.5683 8.94953 72.2936 9.93084 72.2936 11.2467H72.2917Z" fill="#353C4A"/>
<path d="M91.5308 18.0785V16.1178C91.0541 16.8168 90.428 17.3682 89.6504 17.7701C88.8728 18.1738 88.0541 18.3738 87.1906 18.3738C86.327 18.3738 85.5214 18.1813 84.8224 17.7944C84.1233 17.4075 83.6186 16.8654 83.3046 16.1664C82.9925 15.4673 82.8354 14.5009 82.8354 13.2692V4.98131H86.3009V11C86.3009 12.8411 86.3644 13.9701 86.4915 14.385C86.6186 14.8 86.8504 15.129 87.1887 15.372C87.5252 15.615 87.9532 15.7364 88.471 15.7364C89.0635 15.7364 89.5925 15.5738 90.0616 15.2486C90.5308 14.9234 90.8504 14.5215 91.0242 14.0411C91.1962 13.5607 91.284 12.3832 91.284 10.5084V4.98131H94.7495V18.0785H91.5308Z" fill="#353C4A"/>
<path d="M100.14 18.0785H96.6748V4.98131H99.8935V6.84299C100.445 5.96262 100.94 5.38318 101.379 5.10467C101.819 4.8243 102.318 4.68598 102.879 4.68598C103.667 4.68598 104.428 4.90467 105.161 5.34019L104.088 8.36075C103.505 7.98318 102.961 7.79252 102.46 7.79252C101.959 7.79252 101.565 7.9271 101.226 8.19252C100.89 8.45981 100.624 8.94206 100.43 9.64112C100.237 10.3402 100.14 11.8037 100.14 14.0318V18.0766V18.0785Z" fill="#353C4A"/>
</g>
<defs>
<clipPath id="clip0_614_282">
<rect width="105.234" height="20" fill="white"/>
</clipPath>
</defs>
</svg>
