<svg width="737" height="395" viewBox="0 0 737 395" fill="none" xmlns="http://www.w3.org/2000/svg">
<rect x="37.5" y="0.5" width="699" height="393.045" stroke="#A19DFF"/>
<line x1="36.5" y1="394.065" x2="36.5" y2="-3.05176e-05" stroke="#A19DFF"/>
<line x1="136.5" y1="394.065" x2="136.5" y2="-3.05176e-05" stroke="#A19DFF"/>
<line x1="236.5" y1="394.065" x2="236.5" y2="-3.05176e-05" stroke="#A19DFF"/>
<line x1="336.5" y1="394.065" x2="336.5" y2="-3.05176e-05" stroke="#A19DFF"/>
<line x1="436.5" y1="394.065" x2="436.5" y2="-3.05176e-05" stroke="#A19DFF"/>
<line x1="536.5" y1="394.065" x2="536.5" y2="-3.05176e-05" stroke="#A19DFF"/>
<line x1="636.5" y1="394.065" x2="636.5" y2="-3.05176e-05" stroke="#A19DFF"/>
<line x1="736.5" y1="394.065" x2="736.5" y2="-3.05176e-05" stroke="#A19DFF"/>
<line x1="737" y1="350.79" x2="37.0005" y2="350.79" stroke="#A19DFF"/>
<line x1="737" y1="263.22" x2="37.0005" y2="263.22" stroke="#A19DFF"/>
<line x1="737" y1="175.65" x2="37.0005" y2="175.65" stroke="#A19DFF"/>
<line x1="737" y1="88.0798" x2="37.0005" y2="88.0798" stroke="#A19DFF"/>
<line x1="737" y1="0.509766" x2="37.0005" y2="0.509766" stroke="#A19DFF"/>
<g filter="url(#filter0_d_701_128)">
<rect x="237.482" y="86.1819" width="347" height="189" rx="11" transform="rotate(11.6917 237.482 86.1819)" fill="#635BFF" stroke="#A19DFF" stroke-width="2"/>
<rect x="237.31" y="170.905" width="238" height="8" rx="4" transform="rotate(11.6917 237.31 170.905)" fill="#A19DFF"/>
<rect x="208.132" y="223.075" width="349" height="2" transform="rotate(11.6917 208.132 223.075)" fill="#A19DFF"/>
<rect x="234.067" y="186.573" width="148" height="8" rx="4" transform="rotate(11.6917 234.067 186.573)" fill="#A19DFF"/>
<rect x="228.527" y="252.825" width="43" height="8" rx="4" transform="rotate(11.6917 228.527 252.825)" fill="#A19DFF"/>
<rect x="307.846" y="269.239" width="43" height="8" rx="4" transform="rotate(11.6917 307.846 269.239)" fill="#A19DFF"/>
<rect x="395" y="287.274" width="43" height="8" rx="4" transform="rotate(11.6917 395 287.274)" fill="#A19DFF"/>
<rect x="250.887" y="105.295" width="40" height="40" rx="20" transform="rotate(11.6917 250.887 105.295)" fill="#A19DFF"/>
<path fill-rule="evenodd" clip-rule="evenodd" d="M256.753 132.464L265.322 134.237L263.633 142.398L256.753 132.464Z" fill="#A19DFF"/>
<path d="M267.011 126.077L258.442 124.304L256.754 132.464L273.891 136.01L267.011 126.077Z" fill="#A19DFF"/>
<path d="M260.131 116.143L267.011 126.077L275.579 127.85L277.268 119.689L260.131 116.143Z" fill="#A19DFF"/>
<circle cx="298.223" cy="271.332" r="5.25" transform="rotate(11.6917 298.223 271.332)" fill="#A19DFF"/>
<path d="M299.812 273.301L300.341 271.897L298.912 271.601L299.107 270.66C299.189 270.263 299.468 269.917 300.108 270.049L300.758 270.184L301.014 268.948C301.014 268.948 300.445 268.728 299.881 268.612C298.704 268.368 297.792 268.904 297.531 270.162L297.302 271.268L295.994 270.997L295.694 272.448L297.002 272.719L296.276 276.227C296.53 276.322 296.795 276.398 297.068 276.454C297.342 276.511 297.615 276.546 297.886 276.56L298.612 273.052L299.812 273.301Z" fill="white" fill-opacity="0.5"/>
<g clip-path="url(#clip0_701_128)">
<path d="M216.665 253.394C216.174 255.77 217.845 258.164 218.609 259.108C218.719 259.243 218.774 259.311 218.866 259.359C218.939 259.397 219.051 259.42 219.132 259.414C219.236 259.407 219.313 259.366 219.468 259.286C220.544 258.723 223.028 257.188 223.52 254.813C223.706 253.914 223.523 252.977 223.012 252.208C222.501 251.439 221.703 250.902 220.794 250.714C219.885 250.526 218.939 250.702 218.165 251.205C217.391 251.708 216.851 252.495 216.665 253.394Z" stroke="#A19DFF" stroke-linecap="round" stroke-linejoin="round"/>
<path d="M219.207 253.449C219.095 253.99 219.443 254.519 219.983 254.631C220.524 254.743 221.053 254.395 221.165 253.854C221.277 253.313 220.93 252.784 220.389 252.672C219.848 252.56 219.319 252.908 219.207 253.449Z" stroke="#A19DFF" stroke-linecap="round" stroke-linejoin="round"/>
</g>
<path d="M389.994 288.026L389.259 287.874L388.803 290.077L389.538 290.229L389.994 288.026Z" fill="#A19DFF"/>
<path d="M387.423 287.494L388.158 287.646L387.702 289.849L386.967 289.697L387.423 287.494Z" fill="#A19DFF"/>
<path fill-rule="evenodd" clip-rule="evenodd" d="M383.903 285.999L384.783 284.65L392.653 286.278L391.513 291.787L388.854 293.534L387.018 293.154L385.646 294.019L384.219 293.724L384.447 292.622L382.611 292.242L383.903 285.999ZM389.158 292.065L390.931 290.9L391.767 286.861L385.524 285.569L384.384 291.077L385.853 291.381L385.625 292.483L386.955 291.609L389.158 292.065Z" fill="#A19DFF"/>
</g>
<g filter="url(#filter1_d_701_128)">
<rect x="435.617" y="70" width="187" height="82" rx="12" transform="rotate(11.6917 435.617 70)" fill="#635BFF"/>
<rect x="436.394" y="71.1819" width="185" height="80" rx="11" transform="rotate(11.6917 436.394 71.1819)" stroke="#A19DFF" stroke-width="2"/>
</g>
<g clip-path="url(#clip1_701_128)">
<path d="M461.211 123.973L460.941 125.279C460.493 127.442 458.376 128.833 456.213 128.385C454.05 127.937 452.659 125.821 453.107 123.657L453.377 122.352M461.211 123.973L453.377 122.352M461.211 123.973L465.899 124.943C466.398 125.046 466.649 125.098 466.866 125.072C467.279 125.022 467.644 124.781 467.854 124.421C467.965 124.233 468.017 123.981 468.121 123.478C468.167 123.257 468.189 123.147 468.194 123.038C468.202 122.833 468.164 122.629 468.08 122.442C468.036 122.342 467.974 122.247 467.851 122.06L467.447 121.446C467.317 121.248 467.271 121.006 467.319 120.774L468.325 115.914C469.37 110.866 466.124 105.928 461.077 104.883C456.029 103.838 451.09 107.084 450.046 112.131L449.04 116.992C448.992 117.224 448.853 117.427 448.655 117.557L448.041 117.96C447.853 118.084 447.759 118.146 447.679 118.22C447.528 118.359 447.412 118.531 447.338 118.723C447.299 118.824 447.276 118.934 447.231 119.154C447.126 119.658 447.074 119.91 447.101 120.127C447.151 120.54 447.392 120.906 447.751 121.116C447.939 121.227 448.189 121.278 448.689 121.382L453.377 122.352M469.201 105.221C470.721 106.951 471.767 109.045 472.238 111.299M453.486 101.969C451.404 102.953 449.613 104.46 448.286 106.342" stroke="#D9D9D9" stroke-width="2" stroke-linecap="round" stroke-linejoin="round"/>
</g>
<rect x="487.516" y="110.354" width="97" height="8" rx="4" transform="rotate(11.6917 487.516 110.354)" fill="#D9D9D9"/>
<rect x="484.477" y="125.043" width="61" height="8" rx="4" transform="rotate(11.6917 484.477 125.043)" fill="#D9D9D9"/>
<path d="M74.3469 196.284L16.9741 212.661C11.4639 214.234 11.0835 221.898 16.4109 224.008L40.9701 233.739C42.5201 234.353 43.7447 235.585 44.3502 237.138L53.7416 261.227C55.822 266.564 63.4835 266.229 65.0907 260.731L81.7527 203.737C83.078 199.203 78.8885 194.987 74.3469 196.284Z" stroke="#D9D9D9" stroke-width="2"/>
<path d="M660.676 244.839L669.376 275.32C670.949 280.83 678.613 281.21 680.724 275.883L685.002 265.086C685.616 263.536 686.847 262.312 688.401 261.706L698.87 257.625C704.207 255.544 703.872 247.883 698.375 246.275L668.129 237.433C663.595 236.108 659.379 240.297 660.676 244.839Z" stroke="#D9D9D9" stroke-width="2"/>
<defs>
<filter id="filter0_d_701_128" x="200.181" y="87.1804" width="380.104" height="257.4" filterUnits="userSpaceOnUse" color-interpolation-filters="sRGB">
<feFlood flood-opacity="0" result="BackgroundImageFix"/>
<feColorMatrix in="SourceAlpha" type="matrix" values="0 0 0 0 0 0 0 0 0 0 0 0 0 0 0 0 0 0 127 0" result="hardAlpha"/>
<feOffset dx="4" dy="4"/>
<feComposite in2="hardAlpha" operator="out"/>
<feColorMatrix type="matrix" values="0 0 0 0 0.631373 0 0 0 0 0.615686 0 0 0 0 1 0 0 0 0.8 0"/>
<feBlend mode="normal" in2="BackgroundImageFix" result="effect1_dropShadow_701_128"/>
<feBlend mode="normal" in="SourceGraphic" in2="effect1_dropShadow_701_128" result="shape"/>
</filter>
<filter id="filter1_d_701_128" x="421.181" y="72.1804" width="197.376" height="115.833" filterUnits="userSpaceOnUse" color-interpolation-filters="sRGB">
<feFlood flood-opacity="0" result="BackgroundImageFix"/>
<feColorMatrix in="SourceAlpha" type="matrix" values="0 0 0 0 0 0 0 0 0 0 0 0 0 0 0 0 0 0 127 0" result="hardAlpha"/>
<feOffset dx="2" dy="2"/>
<feComposite in2="hardAlpha" operator="out"/>
<feColorMatrix type="matrix" values="0 0 0 0 0.631373 0 0 0 0 0.615686 0 0 0 0 1 0 0 0 0.8 0"/>
<feBlend mode="normal" in2="BackgroundImageFix" result="effect1_dropShadow_701_128"/>
<feBlend mode="normal" in="SourceGraphic" in2="effect1_dropShadow_701_128" result="shape"/>
</filter>
<clipPath id="clip0_701_128">
<rect width="12" height="12" fill="white" transform="translate(215.223 248.029) rotate(11.6917)"/>
</clipPath>
<clipPath id="clip1_701_128">
<rect width="32" height="32" fill="white" transform="translate(446.219 97.7236) rotate(11.6917)"/>
</clipPath>
</defs>
</svg>
