<svg width="64" height="64" viewBox="0 0 64 64" fill="none" xmlns="http://www.w3.org/2000/svg">
<circle cx="32" cy="32" r="32" fill="#635BFF"/>
<path d="M53 28C53 31.283 52.4568 34.5339 51.4015 37.5671C50.3461 40.6002 48.7993 43.3562 46.8492 45.6777C44.8992 47.9991 42.5842 49.8406 40.0363 51.097C37.4885 52.3534 34.7578 53 32 53C29.2422 53 26.5115 52.3534 23.9636 51.097C21.4158 49.8406 19.1008 47.9991 17.1508 45.6777C15.2007 43.3562 13.6539 40.6002 12.5985 37.5671C11.5432 34.5339 11 31.283 11 28C15.3397 37.8786 49.677 36.5267 53 28Z" fill="#FBFBFF"/>
</svg>
