<svg width="228" height="75" viewBox="0 0 228 75" fill="none" xmlns="http://www.w3.org/2000/svg">
<g filter="url(#filter0_d_614_112)">
<rect width="226" height="73" rx="11" fill="white"/>
<rect x="0.5" y="0.5" width="225" height="72" rx="10.5" stroke="black"/>
</g>
<circle cx="34.5" cy="37.5" r="21.5" fill="#DB5B35"/>
<path d="M44.496 33.576C44.496 34.7707 44.208 35.8907 43.632 36.936C43.0773 37.9813 42.192 38.824 40.976 39.464C39.7813 40.104 38.2667 40.424 36.432 40.424H32.688V49H28.208V26.664H36.432C38.16 26.664 39.632 26.9627 40.848 27.56C42.064 28.1573 42.9707 28.9787 43.568 30.024C44.1867 31.0693 44.496 32.2533 44.496 33.576ZM36.24 36.808C37.4773 36.808 38.3947 36.5307 38.992 35.976C39.5893 35.4 39.888 34.6 39.888 33.576C39.888 31.4 38.672 30.312 36.24 30.312H32.688V36.808H36.24Z" fill="white"/>
<path d="M76.288 18.66V19.776H74.068V27H72.7V19.776H70.468V18.66H76.288ZM80.5414 27.108C79.9174 27.108 79.3534 26.968 78.8494 26.688C78.3454 26.4 77.9494 26 77.6614 25.488C77.3734 24.968 77.2294 24.368 77.2294 23.688C77.2294 23.016 77.3774 22.42 77.6734 21.9C77.9694 21.38 78.3734 20.98 78.8854 20.7C79.3974 20.42 79.9694 20.28 80.6014 20.28C81.2334 20.28 81.8054 20.42 82.3174 20.7C82.8294 20.98 83.2334 21.38 83.5294 21.9C83.8254 22.42 83.9734 23.016 83.9734 23.688C83.9734 24.36 83.8214 24.956 83.5174 25.476C83.2134 25.996 82.7974 26.4 82.2694 26.688C81.7494 26.968 81.1734 27.108 80.5414 27.108ZM80.5414 25.92C80.8934 25.92 81.2214 25.836 81.5254 25.668C81.8374 25.5 82.0894 25.248 82.2814 24.912C82.4734 24.576 82.5694 24.168 82.5694 23.688C82.5694 23.208 82.4774 22.804 82.2934 22.476C82.1094 22.14 81.8654 21.888 81.5614 21.72C81.2574 21.552 80.9294 21.468 80.5774 21.468C80.2254 21.468 79.8974 21.552 79.5934 21.72C79.2974 21.888 79.0614 22.14 78.8854 22.476C78.7094 22.804 78.6214 23.208 78.6214 23.688C78.6214 24.4 78.8014 24.952 79.1614 25.344C79.5294 25.728 79.9894 25.92 80.5414 25.92ZM86.6938 21.36C86.9258 21.056 87.2418 20.8 87.6418 20.592C88.0418 20.384 88.4938 20.28 88.9978 20.28C89.5738 20.28 90.0978 20.424 90.5698 20.712C91.0498 20.992 91.4258 21.388 91.6978 21.9C91.9698 22.412 92.1058 23 92.1058 23.664C92.1058 24.328 91.9698 24.924 91.6978 25.452C91.4258 25.972 91.0498 26.38 90.5698 26.676C90.0978 26.964 89.5738 27.108 88.9978 27.108C88.4938 27.108 88.0458 27.008 87.6538 26.808C87.2618 26.6 86.9418 26.344 86.6938 26.04V30.144H85.3258V20.388H86.6938V21.36ZM90.7138 23.664C90.7138 23.208 90.6178 22.816 90.4258 22.488C90.2418 22.152 89.9938 21.9 89.6818 21.732C89.3778 21.556 89.0498 21.468 88.6978 21.468C88.3538 21.468 88.0258 21.556 87.7138 21.732C87.4098 21.908 87.1618 22.164 86.9698 22.5C86.7858 22.836 86.6938 23.232 86.6938 23.688C86.6938 24.144 86.7858 24.544 86.9698 24.888C87.1618 25.224 87.4098 25.48 87.7138 25.656C88.0258 25.832 88.3538 25.92 88.6978 25.92C89.0498 25.92 89.3778 25.832 89.6818 25.656C89.9938 25.472 90.2418 25.208 90.4258 24.864C90.6178 24.52 90.7138 24.12 90.7138 23.664ZM100.908 27L98.9878 23.664H97.9438V27H96.5758V18.66H99.4558C100.096 18.66 100.636 18.772 101.076 18.996C101.524 19.22 101.856 19.52 102.072 19.896C102.296 20.272 102.408 20.692 102.408 21.156C102.408 21.7 102.248 22.196 101.928 22.644C101.616 23.084 101.132 23.384 100.476 23.544L102.54 27H100.908ZM97.9438 22.572H99.4558C99.9678 22.572 100.352 22.444 100.608 22.188C100.872 21.932 101.004 21.588 101.004 21.156C101.004 20.724 100.876 20.388 100.62 20.148C100.364 19.9 99.9758 19.776 99.4558 19.776H97.9438V22.572ZM103.702 23.664C103.702 23 103.838 22.412 104.11 21.9C104.39 21.388 104.766 20.992 105.238 20.712C105.718 20.424 106.246 20.28 106.822 20.28C107.342 20.28 107.794 20.384 108.178 20.592C108.57 20.792 108.882 21.044 109.114 21.348V20.388H110.494V27H109.114V26.016C108.882 26.328 108.566 26.588 108.166 26.796C107.766 27.004 107.31 27.108 106.798 27.108C106.23 27.108 105.71 26.964 105.238 26.676C104.766 26.38 104.39 25.972 104.11 25.452C103.838 24.924 103.702 24.328 103.702 23.664ZM109.114 23.688C109.114 23.232 109.018 22.836 108.826 22.5C108.642 22.164 108.398 21.908 108.094 21.732C107.79 21.556 107.462 21.468 107.11 21.468C106.758 21.468 106.43 21.556 106.126 21.732C105.822 21.9 105.574 22.152 105.382 22.488C105.198 22.816 105.106 23.208 105.106 23.664C105.106 24.12 105.198 24.52 105.382 24.864C105.574 25.208 105.822 25.472 106.126 25.656C106.438 25.832 106.766 25.92 107.11 25.92C107.462 25.92 107.79 25.832 108.094 25.656C108.398 25.48 108.642 25.224 108.826 24.888C109.018 24.544 109.114 24.144 109.114 23.688ZM113.887 21.504V25.164C113.887 25.412 113.943 25.592 114.055 25.704C114.175 25.808 114.375 25.86 114.655 25.86H115.495V27H114.415C113.799 27 113.327 26.856 112.999 26.568C112.671 26.28 112.507 25.812 112.507 25.164V21.504H111.727V20.388H112.507V18.744H113.887V20.388H115.495V21.504H113.887ZM117.451 19.512C117.203 19.512 116.995 19.428 116.827 19.26C116.659 19.092 116.575 18.884 116.575 18.636C116.575 18.388 116.659 18.18 116.827 18.012C116.995 17.844 117.203 17.76 117.451 17.76C117.691 17.76 117.895 17.844 118.063 18.012C118.231 18.18 118.315 18.388 118.315 18.636C118.315 18.884 118.231 19.092 118.063 19.26C117.895 19.428 117.691 19.512 117.451 19.512ZM118.123 20.388V27H116.755V20.388H118.123ZM123.256 20.28C123.776 20.28 124.24 20.388 124.648 20.604C125.064 20.82 125.388 21.14 125.62 21.564C125.852 21.988 125.968 22.5 125.968 23.1V27H124.612V23.304C124.612 22.712 124.464 22.26 124.168 21.948C123.872 21.628 123.468 21.468 122.956 21.468C122.444 21.468 122.036 21.628 121.732 21.948C121.436 22.26 121.288 22.712 121.288 23.304V27H119.92V20.388H121.288V21.144C121.512 20.872 121.796 20.66 122.14 20.508C122.492 20.356 122.864 20.28 123.256 20.28ZM130.377 20.28C130.889 20.28 131.341 20.384 131.733 20.592C132.133 20.792 132.445 21.044 132.669 21.348V20.388H134.049V27.108C134.049 27.716 133.921 28.256 133.665 28.728C133.409 29.208 133.037 29.584 132.549 29.856C132.069 30.128 131.493 30.264 130.821 30.264C129.925 30.264 129.181 30.052 128.589 29.628C127.997 29.212 127.661 28.644 127.581 27.924H128.937C129.041 28.268 129.261 28.544 129.597 28.752C129.941 28.968 130.349 29.076 130.821 29.076C131.373 29.076 131.817 28.908 132.153 28.572C132.497 28.236 132.669 27.748 132.669 27.108V26.004C132.437 26.316 132.121 26.58 131.721 26.796C131.329 27.004 130.881 27.108 130.377 27.108C129.801 27.108 129.273 26.964 128.793 26.676C128.321 26.38 127.945 25.972 127.665 25.452C127.393 24.924 127.257 24.328 127.257 23.664C127.257 23 127.393 22.412 127.665 21.9C127.945 21.388 128.321 20.992 128.793 20.712C129.273 20.424 129.801 20.28 130.377 20.28ZM132.669 23.688C132.669 23.232 132.573 22.836 132.381 22.5C132.197 22.164 131.953 21.908 131.649 21.732C131.345 21.556 131.017 21.468 130.665 21.468C130.313 21.468 129.985 21.556 129.681 21.732C129.377 21.9 129.129 22.152 128.937 22.488C128.753 22.816 128.661 23.208 128.661 23.664C128.661 24.12 128.753 24.52 128.937 24.864C129.129 25.208 129.377 25.472 129.681 25.656C129.993 25.832 130.321 25.92 130.665 25.92C131.017 25.92 131.345 25.832 131.649 25.656C131.953 25.48 132.197 25.224 132.381 24.888C132.573 24.544 132.669 24.144 132.669 23.688ZM143.991 25.296H140.499L139.899 27H138.471L141.459 18.648H143.043L146.031 27H144.591L143.991 25.296ZM143.607 24.18L142.251 20.304L140.883 24.18H143.607ZM148.698 21.36C148.93 21.056 149.246 20.8 149.646 20.592C150.046 20.384 150.498 20.28 151.002 20.28C151.578 20.28 152.102 20.424 152.574 20.712C153.054 20.992 153.43 21.388 153.702 21.9C153.974 22.412 154.11 23 154.11 23.664C154.11 24.328 153.974 24.924 153.702 25.452C153.43 25.972 153.054 26.38 152.574 26.676C152.102 26.964 151.578 27.108 151.002 27.108C150.498 27.108 150.05 27.008 149.658 26.808C149.266 26.6 148.946 26.344 148.698 26.04V30.144H147.33V20.388H148.698V21.36ZM152.718 23.664C152.718 23.208 152.622 22.816 152.43 22.488C152.246 22.152 151.998 21.9 151.686 21.732C151.382 21.556 151.054 21.468 150.702 21.468C150.358 21.468 150.03 21.556 149.718 21.732C149.414 21.908 149.166 22.164 148.974 22.5C148.79 22.836 148.698 23.232 148.698 23.688C148.698 24.144 148.79 24.544 148.974 24.888C149.166 25.224 149.414 25.48 149.718 25.656C150.03 25.832 150.358 25.92 150.702 25.92C151.054 25.92 151.382 25.832 151.686 25.656C151.998 25.472 152.246 25.208 152.43 24.864C152.622 24.52 152.718 24.12 152.718 23.664ZM156.831 21.36C157.063 21.056 157.379 20.8 157.779 20.592C158.179 20.384 158.631 20.28 159.135 20.28C159.711 20.28 160.235 20.424 160.707 20.712C161.187 20.992 161.563 21.388 161.835 21.9C162.107 22.412 162.243 23 162.243 23.664C162.243 24.328 162.107 24.924 161.835 25.452C161.563 25.972 161.187 26.38 160.707 26.676C160.235 26.964 159.711 27.108 159.135 27.108C158.631 27.108 158.183 27.008 157.791 26.808C157.399 26.6 157.079 26.344 156.831 26.04V30.144H155.463V20.388H156.831V21.36ZM160.851 23.664C160.851 23.208 160.755 22.816 160.562 22.488C160.379 22.152 160.131 21.9 159.819 21.732C159.515 21.556 159.187 21.468 158.835 21.468C158.491 21.468 158.163 21.556 157.851 21.732C157.547 21.908 157.299 22.164 157.107 22.5C156.923 22.836 156.831 23.232 156.831 23.688C156.831 24.144 156.923 24.544 157.107 24.888C157.299 25.224 157.547 25.48 157.851 25.656C158.163 25.832 158.491 25.92 158.835 25.92C159.187 25.92 159.515 25.832 159.819 25.656C160.131 25.472 160.379 25.208 160.562 24.864C160.755 24.52 160.851 24.12 160.851 23.664Z" fill="#595959"/>
<g clip-path="url(#clip0_614_112)">
<path d="M71.5566 44.8912C71.3478 44.6981 71.4612 44.3489 71.7437 44.3154L75.7461 43.8407C75.8612 43.8271 75.9612 43.7548 76.0098 43.6495L77.6979 39.9896C77.8171 39.7314 78.1842 39.7313 78.3034 39.9896L79.9915 43.6494C80.0401 43.7547 80.1394 43.8272 80.2546 43.8408L84.2572 44.3154C84.5396 44.3489 84.6527 44.6982 84.4439 44.8913L81.4852 47.6279C81.4001 47.7066 81.3622 47.8238 81.3848 47.9375L82.17 51.8906C82.2254 52.1696 81.9285 52.3858 81.6803 52.2469L78.1634 50.2777C78.0623 50.2211 77.9394 50.2214 77.8382 50.278L74.321 52.2464C74.0728 52.3853 73.7753 52.1696 73.8307 51.8906L74.6161 47.9378C74.6387 47.8241 74.6009 47.7066 74.5158 47.6279L71.5566 44.8912Z" fill="#F9C100" stroke="#F9C100" stroke-width="2" stroke-linecap="round" stroke-linejoin="round"/>
</g>
<g clip-path="url(#clip1_614_112)">
<path d="M95.5566 44.8912C95.3478 44.6981 95.4612 44.3489 95.7437 44.3154L99.7461 43.8407C99.8612 43.8271 99.9612 43.7548 100.01 43.6495L101.698 39.9896C101.817 39.7314 102.184 39.7313 102.303 39.9896L103.992 43.6494C104.04 43.7547 104.139 43.8272 104.255 43.8408L108.257 44.3154C108.54 44.3489 108.653 44.6982 108.444 44.8913L105.485 47.6279C105.4 47.7066 105.362 47.8238 105.385 47.9375L106.17 51.8906C106.225 52.1696 105.929 52.3858 105.68 52.2469L102.163 50.2777C102.062 50.2211 101.939 50.2214 101.838 50.278L98.321 52.2464C98.0728 52.3853 97.7753 52.1696 97.8307 51.8906L98.6161 47.9378C98.6387 47.8241 98.6009 47.7066 98.5158 47.6279L95.5566 44.8912Z" fill="#F9C100" stroke="#F9C100" stroke-width="2" stroke-linecap="round" stroke-linejoin="round"/>
</g>
<g clip-path="url(#clip2_614_112)">
<path d="M119.557 44.8912C119.348 44.6981 119.461 44.3489 119.744 44.3154L123.746 43.8407C123.861 43.8271 123.961 43.7548 124.01 43.6495L125.698 39.9896C125.817 39.7314 126.184 39.7313 126.303 39.9896L127.992 43.6494C128.04 43.7547 128.139 43.8272 128.255 43.8408L132.257 44.3154C132.54 44.3489 132.653 44.6982 132.444 44.8913L129.485 47.6279C129.4 47.7066 129.362 47.8238 129.385 47.9375L130.17 51.8906C130.225 52.1696 129.929 52.3858 129.68 52.2469L126.163 50.2777C126.062 50.2211 125.939 50.2214 125.838 50.278L122.321 52.2464C122.073 52.3853 121.775 52.1696 121.831 51.8906L122.616 47.9378C122.639 47.8241 122.601 47.7066 122.516 47.6279L119.557 44.8912Z" fill="#F9C100" stroke="#F9C100" stroke-width="2" stroke-linecap="round" stroke-linejoin="round"/>
</g>
<g clip-path="url(#clip3_614_112)">
<path d="M143.557 44.8912C143.348 44.6981 143.461 44.3489 143.744 44.3154L147.746 43.8407C147.861 43.8271 147.961 43.7548 148.01 43.6495L149.698 39.9896C149.817 39.7314 150.184 39.7313 150.303 39.9896L151.992 43.6494C152.04 43.7547 152.139 43.8272 152.255 43.8408L156.257 44.3154C156.54 44.3489 156.653 44.6982 156.444 44.8913L153.485 47.6279C153.4 47.7066 153.362 47.8238 153.385 47.9375L154.17 51.8906C154.225 52.1696 153.929 52.3858 153.68 52.2469L150.163 50.2777C150.062 50.2211 149.939 50.2214 149.838 50.278L146.321 52.2464C146.073 52.3853 145.775 52.1696 145.831 51.8906L146.616 47.9378C146.639 47.8241 146.601 47.7066 146.516 47.6279L143.557 44.8912Z" fill="#F9C100" stroke="#F9C100" stroke-width="2" stroke-linecap="round" stroke-linejoin="round"/>
</g>
<g clip-path="url(#clip4_614_112)">
<path d="M167.557 44.8912C167.348 44.6981 167.461 44.3489 167.744 44.3154L171.746 43.8407C171.861 43.8271 171.961 43.7548 172.01 43.6495L173.698 39.9896C173.817 39.7314 174.184 39.7313 174.303 39.9896L175.992 43.6494C176.04 43.7547 176.139 43.8272 176.255 43.8408L180.257 44.3154C180.54 44.3489 180.653 44.6982 180.444 44.8913L177.485 47.6279C177.4 47.7066 177.362 47.8238 177.385 47.9375L178.17 51.8906C178.225 52.1696 177.929 52.3858 177.68 52.2469L174.163 50.2777C174.062 50.2211 173.939 50.2214 173.838 50.278L170.321 52.2464C170.073 52.3853 169.775 52.1696 169.831 51.8906L170.616 47.9378C170.639 47.8241 170.601 47.7066 170.516 47.6279L167.557 44.8912Z" fill="#F9C100" stroke="#F9C100" stroke-width="2" stroke-linecap="round" stroke-linejoin="round"/>
</g>
<defs>
<filter id="filter0_d_614_112" x="0" y="0" width="228" height="75" filterUnits="userSpaceOnUse" color-interpolation-filters="sRGB">
<feFlood flood-opacity="0" result="BackgroundImageFix"/>
<feColorMatrix in="SourceAlpha" type="matrix" values="0 0 0 0 0 0 0 0 0 0 0 0 0 0 0 0 0 0 127 0" result="hardAlpha"/>
<feOffset dx="2" dy="2"/>
<feComposite in2="hardAlpha" operator="out"/>
<feColorMatrix type="matrix" values="0 0 0 0 0 0 0 0 0 0 0 0 0 0 0 0 0 0 1 0"/>
<feBlend mode="normal" in2="BackgroundImageFix" result="effect1_dropShadow_614_112"/>
<feBlend mode="normal" in="SourceGraphic" in2="effect1_dropShadow_614_112" result="shape"/>
</filter>
<clipPath id="clip0_614_112">
<rect width="16" height="16" fill="white" transform="translate(70 38)"/>
</clipPath>
<clipPath id="clip1_614_112">
<rect width="16" height="16" fill="white" transform="translate(94 38)"/>
</clipPath>
<clipPath id="clip2_614_112">
<rect width="16" height="16" fill="white" transform="translate(118 38)"/>
</clipPath>
<clipPath id="clip3_614_112">
<rect width="16" height="16" fill="white" transform="translate(142 38)"/>
</clipPath>
<clipPath id="clip4_614_112">
<rect width="16" height="16" fill="white" transform="translate(166 38)"/>
</clipPath>
</defs>
</svg>
